# MagicaVoxel @ Ephtracy

# group
g MedievalCity-7

# material
mtllib MedievalCity-7.mtl
usemtl palette

# normals
vn -1 0 0
vn 1 0 0
vn 0 0 1
vn 0 0 -1
vn 0 -1 0
vn 0 1 0

# texcoords
vt 0.0644531 0.5
vt 0.0722656 0.5
vt 0.0878906 0.5
vt 0.103516 0.5

# verts
v -7.5 7 3.5
v -7.5 7 1.5
v -7.5 7 -1.5
v -7.5 7 -3.5
v -7.5 8 3.5
v -7.5 8 2.5
v -7.5 8 1.5
v -7.5 8 0.5
v -7.5 8 -0.5
v -7.5 8 -1.5
v -7.5 8 -2.5
v -7.5 8 -3.5
v -7.5 9 2.5
v -7.5 9 1.5
v -7.5 9 0.5
v -7.5 9 -0.5
v -7.5 9 -1.5
v -7.5 9 -2.5
v -7.5 10 1.5
v -7.5 10 0.5
v -7.5 10 -0.5
v -7.5 10 -1.5
v -7.5 11 0.5
v -7.5 11 -0.5
v -6.5 0 2.5
v -6.5 0 1.5
v -6.5 0 -1.5
v -6.5 0 -2.5
v -6.5 1 0.5
v -6.5 1 -0.5
v -6.5 3 1.5
v -6.5 3 0.5
v -6.5 3 -0.5
v -6.5 3 -1.5
v -6.5 4 1.5
v -6.5 4 -1.5
v -6.5 5 0.5
v -6.5 5 -0.5
v -6.5 7 2.5
v -6.5 7 1.5
v -6.5 7 0.5
v -6.5 7 -0.5
v -6.5 7 -1.5
v -6.5 7 -2.5
v -6.5 8 1.5
v -6.5 8 0.5
v -6.5 8 -0.5
v -6.5 8 -1.5
v -6.5 9 0.5
v -6.5 9 -0.5
v -5.5 1 0.5
v -5.5 1 -0.5
v -5.5 3 0.5
v -5.5 3 -0.5
v -5.5 5 0.5
v -5.5 5 -0.5
v -5.5 7 0.5
v -5.5 7 -0.5
v -3.5 1 2.5
v -3.5 1 1.5
v -3.5 1 -1.5
v -3.5 1 -2.5
v -3.5 3 2.5
v -3.5 3 1.5
v -3.5 3 -1.5
v -3.5 3 -2.5
v -3.5 5 2.5
v -3.5 5 1.5
v -3.5 5 -1.5
v -3.5 5 -2.5
v -3.5 7 2.5
v -3.5 7 1.5
v -3.5 7 -1.5
v -3.5 7 -2.5
v 0.5 0 2.5
v 0.5 0 1.5
v 0.5 1 -1.5
v 0.5 1 -2.5
v 0.5 2 2.5
v 0.5 2 1.5
v 0.5 3 -1.5
v 0.5 3 -2.5
v 0.5 5 2.5
v 0.5 5 1.5
v 0.5 5 -1.5
v 0.5 5 -2.5
v 0.5 7 2.5
v 0.5 7 1.5
v 0.5 7 -1.5
v 0.5 7 -2.5
v 4.5 1 2.5
v 4.5 1 1.5
v 4.5 1 -1.5
v 4.5 1 -2.5
v 4.5 3 2.5
v 4.5 3 1.5
v 4.5 3 -1.5
v 4.5 3 -2.5
v 4.5 5 2.5
v 4.5 5 1.5
v 4.5 5 -1.5
v 4.5 5 -2.5
v 4.5 7 2.5
v 4.5 7 1.5
v 4.5 7 -1.5
v 4.5 7 -2.5
v -4.5 1 2.5
v -4.5 1 1.5
v -4.5 1 -1.5
v -4.5 1 -2.5
v -4.5 3 2.5
v -4.5 3 1.5
v -4.5 3 -1.5
v -4.5 3 -2.5
v -4.5 5 2.5
v -4.5 5 1.5
v -4.5 5 -1.5
v -4.5 5 -2.5
v -4.5 7 2.5
v -4.5 7 1.5
v -4.5 7 -1.5
v -4.5 7 -2.5
v -0.5 0 2.5
v -0.5 0 1.5
v -0.5 1 -1.5
v -0.5 1 -2.5
v -0.5 2 2.5
v -0.5 2 1.5
v -0.5 3 -1.5
v -0.5 3 -2.5
v -0.5 5 2.5
v -0.5 5 1.5
v -0.5 5 -1.5
v -0.5 5 -2.5
v -0.5 7 2.5
v -0.5 7 1.5
v -0.5 7 -1.5
v -0.5 7 -2.5
v 3.5 1 2.5
v 3.5 1 1.5
v 3.5 1 -1.5
v 3.5 1 -2.5
v 3.5 3 2.5
v 3.5 3 1.5
v 3.5 3 -1.5
v 3.5 3 -2.5
v 3.5 5 2.5
v 3.5 5 1.5
v 3.5 5 -1.5
v 3.5 5 -2.5
v 3.5 7 2.5
v 3.5 7 1.5
v 3.5 7 -1.5
v 3.5 7 -2.5
v 5.5 1 0.5
v 5.5 1 -0.5
v 5.5 3 0.5
v 5.5 3 -0.5
v 5.5 5 0.5
v 5.5 5 -0.5
v 5.5 7 0.5
v 5.5 7 -0.5
v 6.5 0 2.5
v 6.5 0 1.5
v 6.5 0 -1.5
v 6.5 0 -2.5
v 6.5 1 0.5
v 6.5 1 -0.5
v 6.5 3 1.5
v 6.5 3 0.5
v 6.5 3 -0.5
v 6.5 3 -1.5
v 6.5 4 1.5
v 6.5 4 -1.5
v 6.5 5 0.5
v 6.5 5 -0.5
v 6.5 7 2.5
v 6.5 7 1.5
v 6.5 7 0.5
v 6.5 7 -0.5
v 6.5 7 -1.5
v 6.5 7 -2.5
v 6.5 8 1.5
v 6.5 8 0.5
v 6.5 8 -0.5
v 6.5 8 -1.5
v 6.5 9 0.5
v 6.5 9 -0.5
v 7.5 7 3.5
v 7.5 7 1.5
v 7.5 7 -1.5
v 7.5 7 -3.5
v 7.5 8 3.5
v 7.5 8 2.5
v 7.5 8 1.5
v 7.5 8 0.5
v 7.5 8 -0.5
v 7.5 8 -1.5
v 7.5 8 -2.5
v 7.5 8 -3.5
v 7.5 9 2.5
v 7.5 9 1.5
v 7.5 9 0.5
v 7.5 9 -0.5
v 7.5 9 -1.5
v 7.5 9 -2.5
v 7.5 10 1.5
v 7.5 10 0.5
v 7.5 10 -0.5
v 7.5 10 -1.5
v 7.5 11 0.5
v 7.5 11 -0.5
v -7.5 7 3.5
v -7.5 8 3.5
v 7.5 7 3.5
v 7.5 8 3.5
v -7.5 8 2.5
v -7.5 9 2.5
v -6.5 0 2.5
v -6.5 7 2.5
v -5.5 0 2.5
v -5.5 3 2.5
v -5.5 4 2.5
v -5.5 7 2.5
v -4.5 1 2.5
v -4.5 3 2.5
v -4.5 5 2.5
v -4.5 7 2.5
v -3.5 1 2.5
v -3.5 3 2.5
v -3.5 5 2.5
v -3.5 7 2.5
v -0.5 0 2.5
v -0.5 2 2.5
v -0.5 5 2.5
v -0.5 7 2.5
v 0.5 0 2.5
v 0.5 2 2.5
v 0.5 5 2.5
v 0.5 7 2.5
v 3.5 1 2.5
v 3.5 3 2.5
v 3.5 5 2.5
v 3.5 7 2.5
v 4.5 1 2.5
v 4.5 3 2.5
v 4.5 5 2.5
v 4.5 7 2.5
v 5.5 0 2.5
v 5.5 3 2.5
v 5.5 4 2.5
v 5.5 7 2.5
v 6.5 0 2.5
v 6.5 7 2.5
v 7.5 8 2.5
v 7.5 9 2.5
v -7.5 9 1.5
v -7.5 10 1.5
v -4.5 1 1.5
v -4.5 3 1.5
v -4.5 5 1.5
v -4.5 7 1.5
v -3.5 1 1.5
v -3.5 3 1.5
v -3.5 5 1.5
v -3.5 7 1.5
v -0.5 0 1.5
v -0.5 2 1.5
v -0.5 5 1.5
v -0.5 7 1.5
v 0.5 0 1.5
v 0.5 2 1.5
v 0.5 5 1.5
v 0.5 7 1.5
v 3.5 1 1.5
v 3.5 3 1.5
v 3.5 5 1.5
v 3.5 7 1.5
v 4.5 1 1.5
v 4.5 3 1.5
v 4.5 5 1.5
v 4.5 7 1.5
v 7.5 9 1.5
v 7.5 10 1.5
v -7.5 10 0.5
v -7.5 11 0.5
v 7.5 10 0.5
v 7.5 11 0.5
v -7.5 8 -0.5
v -7.5 9 -0.5
v -6.5 1 -0.5
v -6.5 3 -0.5
v -6.5 5 -0.5
v -6.5 7 -0.5
v -6.5 8 -0.5
v -6.5 9 -0.5
v -5.5 1 -0.5
v -5.5 3 -0.5
v -5.5 5 -0.5
v -5.5 7 -0.5
v 5.5 1 -0.5
v 5.5 3 -0.5
v 5.5 5 -0.5
v 5.5 7 -0.5
v 6.5 1 -0.5
v 6.5 3 -0.5
v 6.5 5 -0.5
v 6.5 7 -0.5
v 6.5 8 -0.5
v 6.5 9 -0.5
v 7.5 8 -0.5
v 7.5 9 -0.5
v -7.5 7 -1.5
v -7.5 8 -1.5
v -6.5 7 -1.5
v -6.5 8 -1.5
v 6.5 7 -1.5
v 6.5 8 -1.5
v 7.5 7 -1.5
v 7.5 8 -1.5
v -7.5 7 1.5
v -7.5 8 1.5
v -6.5 7 1.5
v -6.5 8 1.5
v 6.5 7 1.5
v 6.5 8 1.5
v 7.5 7 1.5
v 7.5 8 1.5
v -7.5 8 0.5
v -7.5 9 0.5
v -6.5 1 0.5
v -6.5 3 0.5
v -6.5 5 0.5
v -6.5 7 0.5
v -6.5 8 0.5
v -6.5 9 0.5
v -5.5 1 0.5
v -5.5 3 0.5
v -5.5 5 0.5
v -5.5 7 0.5
v 5.5 1 0.5
v 5.5 3 0.5
v 5.5 5 0.5
v 5.5 7 0.5
v 6.5 1 0.5
v 6.5 3 0.5
v 6.5 5 0.5
v 6.5 7 0.5
v 6.5 8 0.5
v 6.5 9 0.5
v 7.5 8 0.5
v 7.5 9 0.5
v -7.5 10 -0.5
v -7.5 11 -0.5
v 7.5 10 -0.5
v 7.5 11 -0.5
v -7.5 9 -1.5
v -7.5 10 -1.5
v -4.5 1 -1.5
v -4.5 3 -1.5
v -4.5 5 -1.5
v -4.5 7 -1.5
v -3.5 1 -1.5
v -3.5 3 -1.5
v -3.5 5 -1.5
v -3.5 7 -1.5
v -0.5 1 -1.5
v -0.5 3 -1.5
v -0.5 5 -1.5
v -0.5 7 -1.5
v 0.5 1 -1.5
v 0.5 3 -1.5
v 0.5 5 -1.5
v 0.5 7 -1.5
v 3.5 1 -1.5
v 3.5 3 -1.5
v 3.5 5 -1.5
v 3.5 7 -1.5
v 4.5 1 -1.5
v 4.5 3 -1.5
v 4.5 5 -1.5
v 4.5 7 -1.5
v 7.5 9 -1.5
v 7.5 10 -1.5
v -7.5 8 -2.5
v -7.5 9 -2.5
v -6.5 0 -2.5
v -6.5 7 -2.5
v -5.5 0 -2.5
v -5.5 3 -2.5
v -5.5 4 -2.5
v -5.5 7 -2.5
v -4.5 1 -2.5
v -4.5 3 -2.5
v -4.5 5 -2.5
v -4.5 7 -2.5
v -3.5 1 -2.5
v -3.5 3 -2.5
v -3.5 5 -2.5
v -3.5 7 -2.5
v -0.5 1 -2.5
v -0.5 3 -2.5
v -0.5 5 -2.5
v -0.5 7 -2.5
v 0.5 1 -2.5
v 0.5 3 -2.5
v 0.5 5 -2.5
v 0.5 7 -2.5
v 3.5 1 -2.5
v 3.5 3 -2.5
v 3.5 5 -2.5
v 3.5 7 -2.5
v 4.5 1 -2.5
v 4.5 3 -2.5
v 4.5 5 -2.5
v 4.5 7 -2.5
v 5.5 0 -2.5
v 5.5 3 -2.5
v 5.5 4 -2.5
v 5.5 7 -2.5
v 6.5 0 -2.5
v 6.5 7 -2.5
v 7.5 8 -2.5
v 7.5 9 -2.5
v -7.5 7 -3.5
v -7.5 8 -3.5
v 7.5 7 -3.5
v 7.5 8 -3.5
v -6.5 0 2.5
v -5.5 0 2.5
v -0.5 0 2.5
v 0.5 0 2.5
v 5.5 0 2.5
v 6.5 0 2.5
v -6.5 0 1.5
v -5.5 0 1.5
v -0.5 0 1.5
v 0.5 0 1.5
v 5.5 0 1.5
v 6.5 0 1.5
v -0.5 0 0.5
v 0.5 0 0.5
v -6.5 0 -1.5
v -5.5 0 -1.5
v 5.5 0 -1.5
v 6.5 0 -1.5
v -6.5 0 -2.5
v -5.5 0 -2.5
v 5.5 0 -2.5
v 6.5 0 -2.5
v -0.5 2 2.5
v 0.5 2 2.5
v -0.5 2 1.5
v 0.5 2 1.5
v -4.5 3 2.5
v -3.5 3 2.5
v 3.5 3 2.5
v 4.5 3 2.5
v -4.5 3 1.5
v -3.5 3 1.5
v 3.5 3 1.5
v 4.5 3 1.5
v -6.5 3 0.5
v -5.5 3 0.5
v 5.5 3 0.5
v 6.5 3 0.5
v -6.5 3 -0.5
v -5.5 3 -0.5
v 5.5 3 -0.5
v 6.5 3 -0.5
v -4.5 3 -1.5
v -3.5 3 -1.5
v -0.5 3 -1.5
v 0.5 3 -1.5
v 3.5 3 -1.5
v 4.5 3 -1.5
v -4.5 3 -2.5
v -3.5 3 -2.5
v -0.5 3 -2.5
v 0.5 3 -2.5
v 3.5 3 -2.5
v 4.5 3 -2.5
v -7.5 7 3.5
v 7.5 7 3.5
v -6.5 7 2.5
v -5.5 7 2.5
v -4.5 7 2.5
v -3.5 7 2.5
v -0.5 7 2.5
v 0.5 7 2.5
v 3.5 7 2.5
v 4.5 7 2.5
v 5.5 7 2.5
v 6.5 7 2.5
v -7.5 7 1.5
v -6.5 7 1.5
v -4.5 7 1.5
v -3.5 7 1.5
v -0.5 7 1.5
v 0.5 7 1.5
v 3.5 7 1.5
v 4.5 7 1.5
v 6.5 7 1.5
v 7.5 7 1.5
v -6.5 7 0.5
v -5.5 7 0.5
v 5.5 7 0.5
v 6.5 7 0.5
v -6.5 7 -0.5
v -5.5 7 -0.5
v 5.5 7 -0.5
v 6.5 7 -0.5
v -7.5 7 -1.5
v -6.5 7 -1.5
v -4.5 7 -1.5
v -3.5 7 -1.5
v -0.5 7 -1.5
v 0.5 7 -1.5
v 3.5 7 -1.5
v 4.5 7 -1.5
v 6.5 7 -1.5
v 7.5 7 -1.5
v -6.5 7 -2.5
v -5.5 7 -2.5
v -4.5 7 -2.5
v -3.5 7 -2.5
v -0.5 7 -2.5
v 0.5 7 -2.5
v 3.5 7 -2.5
v 4.5 7 -2.5
v 5.5 7 -2.5
v 6.5 7 -2.5
v -7.5 7 -3.5
v 7.5 7 -3.5
v -7.5 8 1.5
v -6.5 8 1.5
v 6.5 8 1.5
v 7.5 8 1.5
v -7.5 8 0.5
v -6.5 8 0.5
v 6.5 8 0.5
v 7.5 8 0.5
v -7.5 8 -0.5
v -6.5 8 -0.5
v 6.5 8 -0.5
v 7.5 8 -0.5
v -7.5 8 -1.5
v -6.5 8 -1.5
v 6.5 8 -1.5
v 7.5 8 -1.5
v -7.5 9 0.5
v -6.5 9 0.5
v 6.5 9 0.5
v 7.5 9 0.5
v -7.5 9 -0.5
v -6.5 9 -0.5
v 6.5 9 -0.5
v 7.5 9 -0.5
v -4.5 1 2.5
v -3.5 1 2.5
v 3.5 1 2.5
v 4.5 1 2.5
v -4.5 1 1.5
v -3.5 1 1.5
v 3.5 1 1.5
v 4.5 1 1.5
v -6.5 1 0.5
v -5.5 1 0.5
v 5.5 1 0.5
v 6.5 1 0.5
v -6.5 1 -0.5
v -5.5 1 -0.5
v 5.5 1 -0.5
v 6.5 1 -0.5
v -4.5 1 -1.5
v -3.5 1 -1.5
v -0.5 1 -1.5
v 0.5 1 -1.5
v 3.5 1 -1.5
v 4.5 1 -1.5
v -4.5 1 -2.5
v -3.5 1 -2.5
v -0.5 1 -2.5
v 0.5 1 -2.5
v 3.5 1 -2.5
v 4.5 1 -2.5
v -4.5 5 2.5
v -3.5 5 2.5
v -0.5 5 2.5
v 0.5 5 2.5
v 3.5 5 2.5
v 4.5 5 2.5
v -4.5 5 1.5
v -3.5 5 1.5
v -0.5 5 1.5
v 0.5 5 1.5
v 3.5 5 1.5
v 4.5 5 1.5
v -6.5 5 0.5
v -5.5 5 0.5
v 5.5 5 0.5
v 6.5 5 0.5
v -6.5 5 -0.5
v -5.5 5 -0.5
v 5.5 5 -0.5
v 6.5 5 -0.5
v -4.5 5 -1.5
v -3.5 5 -1.5
v -0.5 5 -1.5
v 0.5 5 -1.5
v 3.5 5 -1.5
v 4.5 5 -1.5
v -4.5 5 -2.5
v -3.5 5 -2.5
v -0.5 5 -2.5
v 0.5 5 -2.5
v 3.5 5 -2.5
v 4.5 5 -2.5
v -7.5 8 3.5
v 7.5 8 3.5
v -7.5 8 2.5
v 7.5 8 2.5
v -7.5 8 -2.5
v 7.5 8 -2.5
v -7.5 8 -3.5
v 7.5 8 -3.5
v -7.5 9 2.5
v 7.5 9 2.5
v -7.5 9 1.5
v 7.5 9 1.5
v -7.5 9 -1.5
v 7.5 9 -1.5
v -7.5 9 -2.5
v 7.5 9 -2.5
v -7.5 10 1.5
v 7.5 10 1.5
v -7.5 10 0.5
v 7.5 10 0.5
v -7.5 10 -0.5
v 7.5 10 -0.5
v -7.5 10 -1.5
v 7.5 10 -1.5
v -7.5 11 0.5
v 7.5 11 0.5
v -7.5 11 -0.5
v 7.5 11 -0.5

# faces
f 5/4/1 2/4/1 1/4/1
f 6/4/1 2/4/1 5/4/1
f 7/4/1 2/4/1 6/4/1
f 10/4/1 4/4/1 3/4/1
f 11/4/1 4/4/1 10/4/1
f 12/4/1 4/4/1 11/4/1
f 13/4/1 8/4/1 7/4/1
f 13/4/1 7/4/1 6/4/1
f 14/4/1 8/4/1 13/4/1
f 15/4/1 8/4/1 14/4/1
f 16/4/1 11/4/1 10/4/1
f 16/4/1 10/4/1 9/4/1
f 17/4/1 11/4/1 16/4/1
f 18/4/1 11/4/1 17/4/1
f 19/4/1 15/4/1 14/4/1
f 19/4/1 17/4/1 16/4/1
f 19/4/1 16/4/1 15/4/1
f 20/4/1 17/4/1 19/4/1
f 21/4/1 17/4/1 20/4/1
f 22/4/1 17/4/1 21/4/1
f 23/4/1 21/4/1 20/4/1
f 24/4/1 21/4/1 23/4/1
f 29/3/1 27/3/1 26/3/1
f 30/3/1 27/3/1 29/3/1
f 31/2/1 26/2/1 25/2/1
f 31/3/1 29/3/1 26/3/1
f 32/3/1 29/3/1 31/3/1
f 33/3/1 27/3/1 30/3/1
f 34/2/1 28/2/1 27/2/1
f 34/3/1 27/3/1 33/3/1
f 35/2/1 32/2/1 31/2/1
f 35/2/1 33/2/1 32/2/1
f 35/2/1 34/2/1 33/2/1
f 35/2/1 31/2/1 25/2/1
f 36/2/1 28/2/1 34/2/1
f 36/2/1 34/2/1 35/2/1
f 37/3/1 36/3/1 35/3/1
f 38/3/1 36/3/1 37/3/1
f 39/2/1 35/2/1 25/2/1
f 40/3/1 37/3/1 35/3/1
f 40/2/1 35/2/1 39/2/1
f 41/3/1 37/3/1 40/3/1
f 42/3/1 36/3/1 38/3/1
f 43/2/1 28/2/1 36/2/1
f 43/3/1 36/3/1 42/3/1
f 44/2/1 28/2/1 43/2/1
f 45/3/1 41/3/1 40/3/1
f 45/3/1 42/3/1 41/3/1
f 45/3/1 43/3/1 42/3/1
f 46/3/1 43/3/1 45/3/1
f 47/3/1 43/3/1 46/3/1
f 48/3/1 43/3/1 47/3/1
f 49/3/1 47/3/1 46/3/1
f 50/3/1 47/3/1 49/3/1
f 53/1/1 52/1/1 51/1/1
f 54/1/1 52/1/1 53/1/1
f 57/1/1 56/1/1 55/1/1
f 58/1/1 56/1/1 57/1/1
f 63/3/1 60/3/1 59/3/1
f 64/3/1 60/3/1 63/3/1
f 65/3/1 62/3/1 61/3/1
f 66/3/1 62/3/1 65/3/1
f 71/3/1 68/3/1 67/3/1
f 72/3/1 68/3/1 71/3/1
f 73/3/1 70/3/1 69/3/1
f 74/3/1 70/3/1 73/3/1
f 79/3/1 76/3/1 75/3/1
f 80/3/1 76/3/1 79/3/1
f 81/3/1 78/3/1 77/3/1
f 82/3/1 78/3/1 81/3/1
f 87/3/1 84/3/1 83/3/1
f 88/3/1 84/3/1 87/3/1
f 89/3/1 86/3/1 85/3/1
f 90/3/1 86/3/1 89/3/1
f 95/3/1 92/3/1 91/3/1
f 96/3/1 92/3/1 95/3/1
f 97/3/1 94/3/1 93/3/1
f 98/3/1 94/3/1 97/3/1
f 103/3/1 100/3/1 99/3/1
f 104/3/1 100/3/1 103/3/1
f 105/3/1 102/3/1 101/3/1
f 106/3/1 102/3/1 105/3/1
f 107/3/2 108/3/2 111/3/2
f 111/3/2 108/3/2 112/3/2
f 109/3/2 110/3/2 113/3/2
f 113/3/2 110/3/2 114/3/2
f 115/3/2 116/3/2 119/3/2
f 119/3/2 116/3/2 120/3/2
f 117/3/2 118/3/2 121/3/2
f 121/3/2 118/3/2 122/3/2
f 123/3/2 124/3/2 127/3/2
f 127/3/2 124/3/2 128/3/2
f 125/3/2 126/3/2 129/3/2
f 129/3/2 126/3/2 130/3/2
f 131/3/2 132/3/2 135/3/2
f 135/3/2 132/3/2 136/3/2
f 133/3/2 134/3/2 137/3/2
f 137/3/2 134/3/2 138/3/2
f 139/3/2 140/3/2 143/3/2
f 143/3/2 140/3/2 144/3/2
f 141/3/2 142/3/2 145/3/2
f 145/3/2 142/3/2 146/3/2
f 147/3/2 148/3/2 151/3/2
f 151/3/2 148/3/2 152/3/2
f 149/3/2 150/3/2 153/3/2
f 153/3/2 150/3/2 154/3/2
f 155/1/2 156/1/2 157/1/2
f 157/1/2 156/1/2 158/1/2
f 159/1/2 160/1/2 161/1/2
f 161/1/2 160/1/2 162/1/2
f 164/3/2 165/3/2 167/3/2
f 167/3/2 165/3/2 168/3/2
f 163/2/2 164/2/2 169/2/2
f 164/3/2 167/3/2 169/3/2
f 169/3/2 167/3/2 170/3/2
f 168/3/2 165/3/2 171/3/2
f 165/2/2 166/2/2 172/2/2
f 171/3/2 165/3/2 172/3/2
f 169/2/2 170/2/2 173/2/2
f 170/2/2 171/2/2 173/2/2
f 171/2/2 172/2/2 173/2/2
f 163/2/2 169/2/2 173/2/2
f 172/2/2 166/2/2 174/2/2
f 173/2/2 172/2/2 174/2/2
f 173/3/2 174/3/2 175/3/2
f 175/3/2 174/3/2 176/3/2
f 163/2/2 173/2/2 177/2/2
f 173/3/2 175/3/2 178/3/2
f 177/2/2 173/2/2 178/2/2
f 178/3/2 175/3/2 179/3/2
f 176/3/2 174/3/2 180/3/2
f 174/2/2 166/2/2 181/2/2
f 180/3/2 174/3/2 181/3/2
f 181/2/2 166/2/2 182/2/2
f 178/3/2 179/3/2 183/3/2
f 179/3/2 180/3/2 183/3/2
f 180/3/2 181/3/2 183/3/2
f 183/3/2 181/3/2 184/3/2
f 184/3/2 181/3/2 185/3/2
f 185/3/2 181/3/2 186/3/2
f 184/3/2 185/3/2 187/3/2
f 187/3/2 185/3/2 188/3/2
f 189/4/2 190/4/2 193/4/2
f 193/4/2 190/4/2 194/4/2
f 194/4/2 190/4/2 195/4/2
f 191/4/2 192/4/2 198/4/2
f 198/4/2 192/4/2 199/4/2
f 199/4/2 192/4/2 200/4/2
f 195/4/2 196/4/2 201/4/2
f 194/4/2 195/4/2 201/4/2
f 201/4/2 196/4/2 202/4/2
f 202/4/2 196/4/2 203/4/2
f 198/4/2 199/4/2 204/4/2
f 197/4/2 198/4/2 204/4/2
f 204/4/2 199/4/2 205/4/2
f 205/4/2 199/4/2 206/4/2
f 202/4/2 203/4/2 207/4/2
f 204/4/2 205/4/2 207/4/2
f 203/4/2 204/4/2 207/4/2
f 207/4/2 205/4/2 208/4/2
f 208/4/2 205/4/2 209/4/2
f 209/4/2 205/4/2 210/4/2
f 208/4/2 209/4/2 211/4/2
f 211/4/2 209/4/2 212/4/2
f 215/4/3 214/4/3 213/4/3
f 216/4/3 214/4/3 215/4/3
f 221/2/3 220/2/3 219/2/3
f 222/2/3 220/2/3 221/2/3
f 223/2/3 220/2/3 222/2/3
f 224/2/3 220/2/3 223/2/3
f 225/3/3 222/3/3 221/3/3
f 226/2/3 223/2/3 222/2/3
f 226/3/3 222/3/3 225/3/3
f 227/3/3 224/3/3 223/3/3
f 228/3/3 224/3/3 227/3/3
f 229/3/3 225/3/3 221/3/3
f 230/2/3 223/2/3 226/2/3
f 231/3/3 227/3/3 223/3/3
f 233/3/3 229/3/3 221/3/3
f 233/3/3 230/3/3 229/3/3
f 234/3/3 230/3/3 233/3/3
f 235/3/3 232/3/3 231/3/3
f 235/3/3 231/3/3 223/3/3
f 236/3/3 232/3/3 235/3/3
f 238/3/3 230/3/3 234/3/3
f 239/3/3 235/3/3 223/3/3
f 241/3/3 238/3/3 237/3/3
f 242/2/3 223/2/3 230/2/3
f 242/3/3 238/3/3 241/3/3
f 242/3/3 230/3/3 238/3/3
f 243/3/3 240/3/3 239/3/3
f 243/3/3 239/3/3 223/3/3
f 244/3/3 240/3/3 243/3/3
f 245/3/3 241/3/3 237/3/3
f 246/2/3 223/2/3 242/2/3
f 247/3/3 243/3/3 223/3/3
f 249/3/3 245/3/3 237/3/3
f 249/3/3 246/3/3 245/3/3
f 250/2/3 223/2/3 246/2/3
f 250/3/3 246/3/3 249/3/3
f 251/3/3 248/3/3 247/3/3
f 251/2/3 223/2/3 250/2/3
f 251/3/3 247/3/3 223/3/3
f 252/3/3 248/3/3 251/3/3
f 253/2/3 250/2/3 249/2/3
f 253/2/3 251/2/3 250/2/3
f 253/2/3 252/2/3 251/2/3
f 254/2/3 252/2/3 253/2/3
f 255/4/3 218/4/3 217/4/3
f 256/4/3 218/4/3 255/4/3
f 263/1/3 260/1/3 259/1/3
f 264/1/3 260/1/3 263/1/3
f 265/1/3 262/1/3 261/1/3
f 266/1/3 262/1/3 265/1/3
f 271/1/3 268/1/3 267/1/3
f 272/1/3 268/1/3 271/1/3
f 273/1/3 270/1/3 269/1/3
f 274/1/3 270/1/3 273/1/3
f 279/1/3 276/1/3 275/1/3
f 280/1/3 276/1/3 279/1/3
f 281/1/3 278/1/3 277/1/3
f 282/1/3 278/1/3 281/1/3
f 283/4/3 258/4/3 257/4/3
f 284/4/3 258/4/3 283/4/3
f 287/4/3 286/4/3 285/4/3
f 288/4/3 286/4/3 287/4/3
f 295/4/3 290/4/3 289/4/3
f 296/4/3 290/4/3 295/4/3
f 297/3/3 292/3/3 291/3/3
f 298/3/3 292/3/3 297/3/3
f 299/3/3 294/3/3 293/3/3
f 300/3/3 294/3/3 299/3/3
f 305/3/3 302/3/3 301/3/3
f 306/3/3 302/3/3 305/3/3
f 307/3/3 304/3/3 303/3/3
f 308/3/3 304/3/3 307/3/3
f 311/4/3 310/4/3 309/4/3
f 312/4/3 310/4/3 311/4/3
f 315/4/3 314/4/3 313/4/3
f 316/4/3 314/4/3 315/4/3
f 319/4/3 318/4/3 317/4/3
f 320/4/3 318/4/3 319/4/3
f 321/4/4 322/4/4 323/4/4
f 323/4/4 322/4/4 324/4/4
f 325/4/4 326/4/4 327/4/4
f 327/4/4 326/4/4 328/4/4
f 329/4/4 330/4/4 335/4/4
f 335/4/4 330/4/4 336/4/4
f 331/3/4 332/3/4 337/3/4
f 337/3/4 332/3/4 338/3/4
f 333/3/4 334/3/4 339/3/4
f 339/3/4 334/3/4 340/3/4
f 341/3/4 342/3/4 345/3/4
f 345/3/4 342/3/4 346/3/4
f 343/3/4 344/3/4 347/3/4
f 347/3/4 344/3/4 348/3/4
f 349/4/4 350/4/4 351/4/4
f 351/4/4 350/4/4 352/4/4
f 353/4/4 354/4/4 355/4/4
f 355/4/4 354/4/4 356/4/4
f 359/1/4 360/1/4 363/1/4
f 363/1/4 360/1/4 364/1/4
f 361/1/4 362/1/4 365/1/4
f 365/1/4 362/1/4 366/1/4
f 367/1/4 368/1/4 371/1/4
f 371/1/4 368/1/4 372/1/4
f 369/1/4 370/1/4 373/1/4
f 373/1/4 370/1/4 374/1/4
f 375/1/4 376/1/4 379/1/4
f 379/1/4 376/1/4 380/1/4
f 377/1/4 378/1/4 381/1/4
f 381/1/4 378/1/4 382/1/4
f 357/4/4 358/4/4 383/4/4
f 383/4/4 358/4/4 384/4/4
f 387/2/4 388/2/4 389/2/4
f 389/2/4 388/2/4 390/2/4
f 390/2/4 388/2/4 391/2/4
f 391/2/4 388/2/4 392/2/4
f 389/3/4 390/3/4 393/3/4
f 390/2/4 391/2/4 394/2/4
f 393/3/4 390/3/4 394/3/4
f 391/3/4 392/3/4 395/3/4
f 395/3/4 392/3/4 396/3/4
f 389/3/4 393/3/4 397/3/4
f 394/2/4 391/2/4 398/2/4
f 391/3/4 395/3/4 399/3/4
f 389/3/4 397/3/4 401/3/4
f 397/3/4 398/3/4 401/3/4
f 398/2/4 391/2/4 402/2/4
f 401/3/4 398/3/4 402/3/4
f 399/3/4 400/3/4 403/3/4
f 391/3/4 399/3/4 403/3/4
f 403/3/4 400/3/4 404/3/4
f 389/3/4 401/3/4 405/3/4
f 402/2/4 391/2/4 406/2/4
f 391/3/4 403/3/4 407/3/4
f 389/3/4 405/3/4 409/3/4
f 405/3/4 406/3/4 409/3/4
f 406/2/4 391/2/4 410/2/4
f 409/3/4 406/3/4 410/3/4
f 407/3/4 408/3/4 411/3/4
f 391/3/4 407/3/4 411/3/4
f 411/3/4 408/3/4 412/3/4
f 389/3/4 409/3/4 413/3/4
f 410/2/4 391/2/4 414/2/4
f 391/3/4 411/3/4 415/3/4
f 389/3/4 413/3/4 417/3/4
f 413/3/4 414/3/4 417/3/4
f 414/2/4 391/2/4 418/2/4
f 417/3/4 414/3/4 418/3/4
f 415/3/4 416/3/4 419/3/4
f 418/2/4 391/2/4 419/2/4
f 391/3/4 415/3/4 419/3/4
f 419/3/4 416/3/4 420/3/4
f 417/2/4 418/2/4 421/2/4
f 418/2/4 419/2/4 421/2/4
f 419/2/4 420/2/4 421/2/4
f 421/2/4 420/2/4 422/2/4
f 385/4/4 386/4/4 423/4/4
f 423/4/4 386/4/4 424/4/4
f 425/4/4 426/4/4 427/4/4
f 427/4/4 426/4/4 428/4/4
f 435/2/5 430/2/5 429/2/5
f 436/3/5 431/3/5 430/3/5
f 436/2/5 430/2/5 435/2/5
f 437/3/5 431/3/5 436/3/5
f 438/3/5 433/3/5 432/3/5
f 439/2/5 434/2/5 433/2/5
f 439/3/5 433/3/5 438/3/5
f 440/2/5 434/2/5 439/2/5
f 441/1/5 438/1/5 437/1/5
f 441/3/5 437/3/5 436/3/5
f 441/3/5 436/3/5 435/3/5
f 442/3/5 440/3/5 439/3/5
f 442/1/5 438/1/5 441/1/5
f 442/3/5 439/3/5 438/3/5
f 443/3/5 441/3/5 435/3/5
f 443/3/5 442/3/5 441/3/5
f 444/3/5 442/3/5 443/3/5
f 445/3/5 440/3/5 442/3/5
f 445/3/5 442/3/5 444/3/5
f 446/3/5 440/3/5 445/3/5
f 447/2/5 444/2/5 443/2/5
f 448/3/5 445/3/5 444/3/5
f 448/2/5 444/2/5 447/2/5
f 449/2/5 446/2/5 445/2/5
f 449/3/5 445/3/5 448/3/5
f 450/2/5 446/2/5 449/2/5
f 453/3/5 452/3/5 451/3/5
f 454/3/5 452/3/5 453/3/5
f 459/2/5 456/2/5 455/2/5
f 460/2/5 456/2/5 459/2/5
f 461/2/5 458/2/5 457/2/5
f 462/2/5 458/2/5 461/2/5
f 467/2/5 464/2/5 463/2/5
f 468/2/5 464/2/5 467/2/5
f 469/2/5 466/2/5 465/2/5
f 470/2/5 466/2/5 469/2/5
f 477/2/5 472/2/5 471/2/5
f 478/2/5 472/2/5 477/2/5
f 479/2/5 474/2/5 473/2/5
f 480/2/5 474/2/5 479/2/5
f 481/2/5 476/2/5 475/2/5
f 482/2/5 476/2/5 481/2/5
f 485/4/5 484/4/5 483/4/5
f 486/4/5 484/4/5 485/4/5
f 487/4/5 484/4/5 486/4/5
f 488/4/5 484/4/5 487/4/5
f 489/4/5 484/4/5 488/4/5
f 490/4/5 484/4/5 489/4/5
f 491/4/5 484/4/5 490/4/5
f 492/4/5 484/4/5 491/4/5
f 493/4/5 484/4/5 492/4/5
f 494/4/5 484/4/5 493/4/5
f 495/4/5 485/4/5 483/4/5
f 496/4/5 485/4/5 495/4/5
f 497/2/5 488/2/5 487/2/5
f 498/2/5 488/2/5 497/2/5
f 499/2/5 490/2/5 489/2/5
f 500/2/5 490/2/5 499/2/5
f 501/2/5 492/2/5 491/2/5
f 502/2/5 492/2/5 501/2/5
f 503/4/5 484/4/5 494/4/5
f 504/4/5 484/4/5 503/4/5
f 509/3/5 506/3/5 505/3/5
f 510/3/5 506/3/5 509/3/5
f 511/3/5 508/3/5 507/3/5
f 512/3/5 508/3/5 511/3/5
f 523/4/5 514/4/5 513/4/5
f 525/2/5 516/2/5 515/2/5
f 526/2/5 516/2/5 525/2/5
f 527/2/5 518/2/5 517/2/5
f 528/2/5 518/2/5 527/2/5
f 529/2/5 520/2/5 519/2/5
f 530/2/5 520/2/5 529/2/5
f 532/4/5 522/4/5 521/4/5
f 533/4/5 528/4/5 527/4/5
f 533/4/5 532/4/5 531/4/5
f 533/4/5 531/4/5 530/4/5
f 533/4/5 524/4/5 523/4/5
f 533/4/5 530/4/5 529/4/5
f 533/4/5 529/4/5 528/4/5
f 533/4/5 526/4/5 525/4/5
f 533/4/5 527/4/5 526/4/5
f 533/4/5 523/4/5 513/4/5
f 533/4/5 525/4/5 524/4/5
f 534/4/5 522/4/5 532/4/5
f 534/4/5 532/4/5 533/4/5
f 539/4/5 536/4/5 535/4/5
f 540/4/5 536/4/5 539/4/5
f 541/4/5 538/4/5 537/4/5
f 542/4/5 538/4/5 541/4/5
f 547/4/5 544/4/5 543/4/5
f 548/4/5 544/4/5 547/4/5
f 549/4/5 546/4/5 545/4/5
f 550/4/5 546/4/5 549/4/5
f 555/4/5 552/4/5 551/4/5
f 556/4/5 552/4/5 555/4/5
f 557/4/5 554/4/5 553/4/5
f 558/4/5 554/4/5 557/4/5
f 559/3/6 560/3/6 563/3/6
f 563/3/6 560/3/6 564/3/6
f 561/3/6 562/3/6 565/3/6
f 565/3/6 562/3/6 566/3/6
f 567/3/6 568/3/6 571/3/6
f 571/3/6 568/3/6 572/3/6
f 569/3/6 570/3/6 573/3/6
f 573/3/6 570/3/6 574/3/6
f 575/3/6 576/3/6 581/3/6
f 581/3/6 576/3/6 582/3/6
f 577/3/6 578/3/6 583/3/6
f 583/3/6 578/3/6 584/3/6
f 579/3/6 580/3/6 585/3/6
f 585/3/6 580/3/6 586/3/6
f 587/3/6 588/3/6 593/3/6
f 593/3/6 588/3/6 594/3/6
f 589/3/6 590/3/6 595/3/6
f 595/3/6 590/3/6 596/3/6
f 591/3/6 592/3/6 597/3/6
f 597/3/6 592/3/6 598/3/6
f 599/3/6 600/3/6 603/3/6
f 603/3/6 600/3/6 604/3/6
f 601/3/6 602/3/6 605/3/6
f 605/3/6 602/3/6 606/3/6
f 607/3/6 608/3/6 613/3/6
f 613/3/6 608/3/6 614/3/6
f 609/3/6 610/3/6 615/3/6
f 615/3/6 610/3/6 616/3/6
f 611/3/6 612/3/6 617/3/6
f 617/3/6 612/3/6 618/3/6
f 619/4/6 620/4/6 621/4/6
f 621/4/6 620/4/6 622/4/6
f 623/4/6 624/4/6 625/4/6
f 625/4/6 624/4/6 626/4/6
f 627/4/6 628/4/6 629/4/6
f 629/4/6 628/4/6 630/4/6
f 631/4/6 632/4/6 633/4/6
f 633/4/6 632/4/6 634/4/6
f 635/4/6 636/4/6 637/4/6
f 637/4/6 636/4/6 638/4/6
f 639/4/6 640/4/6 641/4/6
f 641/4/6 640/4/6 642/4/6
f 643/4/6 644/4/6 645/4/6
f 645/4/6 644/4/6 646/4/6
