# MagicaVoxel @ Ephtracy

# group
g MedievalCity-5

# material
mtllib MedievalCity-5.mtl
usemtl palette

# normals
vn -1 0 0
vn 1 0 0
vn 0 0 1
vn 0 0 -1
vn 0 -1 0
vn 0 1 0

# texcoords
vt 0.0644531 0.5
vt 0.0722656 0.5
vt 0.0878906 0.5
vt 0.103516 0.5

# verts
v -3.5 3 3.5
v -3.5 3 -3.5
v -3.5 4 3.5
v -3.5 4 -3.5
v -2.5 0 2.5
v -2.5 0 1.5
v -2.5 0 -1.5
v -2.5 0 -2.5
v -2.5 1 0.5
v -2.5 1 -0.5
v -2.5 2 0.5
v -2.5 2 -0.5
v -2.5 3 2.5
v -2.5 3 1.5
v -2.5 3 -1.5
v -2.5 3 -2.5
v -2.5 4 3.5
v -2.5 4 -3.5
v -2.5 5 3.5
v -2.5 5 -3.5
v -1.5 1 0.5
v -1.5 1 -0.5
v -1.5 2 0.5
v -1.5 2 -0.5
v -1.5 5 3.5
v -1.5 5 -3.5
v -1.5 6 3.5
v -1.5 6 -3.5
v -0.5 6 3.5
v -0.5 6 -3.5
v -0.5 7 3.5
v -0.5 7 -3.5
v 0.5 0 2.5
v 0.5 0 1.5
v 0.5 1 -1.5
v 0.5 1 -2.5
v 0.5 2 2.5
v 0.5 2 1.5
v 0.5 3 2.5
v 0.5 3 1.5
v 0.5 3 -1.5
v 0.5 3 -2.5
v 0.5 4 3.5
v 0.5 4 2.5
v 0.5 4 1.5
v 0.5 4 -2.5
v 0.5 4 -3.5
v 0.5 5 3.5
v 0.5 5 2.5
v 0.5 5 -2.5
v 0.5 5 -3.5
v 1.5 3 3.5
v 1.5 3 2.5
v 1.5 3 -2.5
v 1.5 3 -3.5
v 1.5 4 3.5
v 1.5 4 2.5
v 1.5 4 -2.5
v 1.5 4 -3.5
v -1.5 3 3.5
v -1.5 3 2.5
v -1.5 3 -2.5
v -1.5 3 -3.5
v -1.5 4 3.5
v -1.5 4 2.5
v -1.5 4 -2.5
v -1.5 4 -3.5
v -0.5 0 2.5
v -0.5 0 1.5
v -0.5 1 -1.5
v -0.5 1 -2.5
v -0.5 2 2.5
v -0.5 2 1.5
v -0.5 3 2.5
v -0.5 3 1.5
v -0.5 3 -1.5
v -0.5 3 -2.5
v -0.5 4 3.5
v -0.5 4 2.5
v -0.5 4 1.5
v -0.5 4 -2.5
v -0.5 4 -3.5
v -0.5 5 3.5
v -0.5 5 2.5
v -0.5 5 -2.5
v -0.5 5 -3.5
v 0.5 6 3.5
v 0.5 6 -3.5
v 0.5 7 3.5
v 0.5 7 -3.5
v 1.5 1 0.5
v 1.5 1 -0.5
v 1.5 2 0.5
v 1.5 2 -0.5
v 1.5 5 3.5
v 1.5 5 -3.5
v 1.5 6 3.5
v 1.5 6 -3.5
v 2.5 0 2.5
v 2.5 0 1.5
v 2.5 0 -1.5
v 2.5 0 -2.5
v 2.5 1 0.5
v 2.5 1 -0.5
v 2.5 2 0.5
v 2.5 2 -0.5
v 2.5 3 2.5
v 2.5 3 1.5
v 2.5 3 -1.5
v 2.5 3 -2.5
v 2.5 4 3.5
v 2.5 4 -3.5
v 2.5 5 3.5
v 2.5 5 -3.5
v 3.5 3 3.5
v 3.5 3 -3.5
v 3.5 4 3.5
v 3.5 4 -3.5
v -3.5 3 3.5
v -3.5 4 3.5
v -2.5 4 3.5
v -2.5 5 3.5
v -1.5 3 3.5
v -1.5 4 3.5
v -1.5 5 3.5
v -1.5 6 3.5
v -0.5 4 3.5
v -0.5 5 3.5
v -0.5 6 3.5
v -0.5 7 3.5
v 0.5 4 3.5
v 0.5 5 3.5
v 0.5 6 3.5
v 0.5 7 3.5
v 1.5 3 3.5
v 1.5 4 3.5
v 1.5 5 3.5
v 1.5 6 3.5
v 2.5 4 3.5
v 2.5 5 3.5
v 3.5 3 3.5
v 3.5 4 3.5
v -2.5 0 2.5
v -2.5 3 2.5
v -1.5 0 2.5
v -1.5 3 2.5
v -1.5 4 2.5
v -0.5 0 2.5
v -0.5 2 2.5
v -0.5 3 2.5
v -0.5 4 2.5
v -0.5 5 2.5
v 0.5 0 2.5
v 0.5 2 2.5
v 0.5 3 2.5
v 0.5 4 2.5
v 0.5 5 2.5
v 1.5 0 2.5
v 1.5 3 2.5
v 1.5 4 2.5
v 2.5 0 2.5
v 2.5 3 2.5
v -0.5 0 1.5
v -0.5 2 1.5
v -0.5 3 1.5
v -0.5 4 1.5
v 0.5 0 1.5
v 0.5 2 1.5
v 0.5 3 1.5
v 0.5 4 1.5
v -2.5 1 -0.5
v -2.5 2 -0.5
v -1.5 1 -0.5
v -1.5 2 -0.5
v 1.5 1 -0.5
v 1.5 2 -0.5
v 2.5 1 -0.5
v 2.5 2 -0.5
v -2.5 1 0.5
v -2.5 2 0.5
v -1.5 1 0.5
v -1.5 2 0.5
v 1.5 1 0.5
v 1.5 2 0.5
v 2.5 1 0.5
v 2.5 2 0.5
v -0.5 1 -1.5
v -0.5 3 -1.5
v 0.5 1 -1.5
v 0.5 3 -1.5
v -2.5 0 -2.5
v -2.5 3 -2.5
v -1.5 0 -2.5
v -1.5 3 -2.5
v -1.5 4 -2.5
v -0.5 1 -2.5
v -0.5 3 -2.5
v -0.5 4 -2.5
v -0.5 5 -2.5
v 0.5 1 -2.5
v 0.5 3 -2.5
v 0.5 4 -2.5
v 0.5 5 -2.5
v 1.5 0 -2.5
v 1.5 3 -2.5
v 1.5 4 -2.5
v 2.5 0 -2.5
v 2.5 3 -2.5
v -3.5 3 -3.5
v -3.5 4 -3.5
v -2.5 4 -3.5
v -2.5 5 -3.5
v -1.5 3 -3.5
v -1.5 4 -3.5
v -1.5 5 -3.5
v -1.5 6 -3.5
v -0.5 4 -3.5
v -0.5 5 -3.5
v -0.5 6 -3.5
v -0.5 7 -3.5
v 0.5 4 -3.5
v 0.5 5 -3.5
v 0.5 6 -3.5
v 0.5 7 -3.5
v 1.5 3 -3.5
v 1.5 4 -3.5
v 1.5 5 -3.5
v 1.5 6 -3.5
v 2.5 4 -3.5
v 2.5 5 -3.5
v 3.5 3 -3.5
v 3.5 4 -3.5
v -2.5 0 2.5
v -1.5 0 2.5
v -0.5 0 2.5
v 0.5 0 2.5
v 1.5 0 2.5
v 2.5 0 2.5
v -2.5 0 1.5
v -1.5 0 1.5
v -0.5 0 1.5
v 0.5 0 1.5
v 1.5 0 1.5
v 2.5 0 1.5
v -0.5 0 0.5
v 0.5 0 0.5
v -2.5 0 -1.5
v -1.5 0 -1.5
v 1.5 0 -1.5
v 2.5 0 -1.5
v -2.5 0 -2.5
v -1.5 0 -2.5
v 1.5 0 -2.5
v 2.5 0 -2.5
v -0.5 2 2.5
v 0.5 2 2.5
v -0.5 2 1.5
v 0.5 2 1.5
v -2.5 2 0.5
v -1.5 2 0.5
v 1.5 2 0.5
v 2.5 2 0.5
v -2.5 2 -0.5
v -1.5 2 -0.5
v 1.5 2 -0.5
v 2.5 2 -0.5
v -3.5 3 3.5
v -1.5 3 3.5
v 1.5 3 3.5
v 3.5 3 3.5
v -2.5 3 2.5
v -1.5 3 2.5
v 1.5 3 2.5
v 2.5 3 2.5
v -2.5 3 1.5
v 2.5 3 1.5
v -2.5 3 -1.5
v -0.5 3 -1.5
v 0.5 3 -1.5
v 2.5 3 -1.5
v -2.5 3 -2.5
v -1.5 3 -2.5
v -0.5 3 -2.5
v 0.5 3 -2.5
v 1.5 3 -2.5
v 2.5 3 -2.5
v -3.5 3 -3.5
v -1.5 3 -3.5
v 1.5 3 -3.5
v 3.5 3 -3.5
v -1.5 4 3.5
v -0.5 4 3.5
v 0.5 4 3.5
v 1.5 4 3.5
v -1.5 4 2.5
v -0.5 4 2.5
v 0.5 4 2.5
v 1.5 4 2.5
v -0.5 4 1.5
v 0.5 4 1.5
v -1.5 4 -2.5
v -0.5 4 -2.5
v 0.5 4 -2.5
v 1.5 4 -2.5
v -1.5 4 -3.5
v -0.5 4 -3.5
v 0.5 4 -3.5
v 1.5 4 -3.5
v -0.5 5 3.5
v 0.5 5 3.5
v -0.5 5 2.5
v 0.5 5 2.5
v -0.5 5 -2.5
v 0.5 5 -2.5
v -0.5 5 -3.5
v 0.5 5 -3.5
v -2.5 1 0.5
v -1.5 1 0.5
v 1.5 1 0.5
v 2.5 1 0.5
v -2.5 1 -0.5
v -1.5 1 -0.5
v 1.5 1 -0.5
v 2.5 1 -0.5
v -0.5 1 -1.5
v 0.5 1 -1.5
v -0.5 1 -2.5
v 0.5 1 -2.5
v -0.5 3 2.5
v 0.5 3 2.5
v -0.5 3 1.5
v 0.5 3 1.5
v -3.5 4 3.5
v -2.5 4 3.5
v 2.5 4 3.5
v 3.5 4 3.5
v -3.5 4 -3.5
v -2.5 4 -3.5
v 2.5 4 -3.5
v 3.5 4 -3.5
v -2.5 5 3.5
v -1.5 5 3.5
v 1.5 5 3.5
v 2.5 5 3.5
v -2.5 5 -3.5
v -1.5 5 -3.5
v 1.5 5 -3.5
v 2.5 5 -3.5
v -1.5 6 3.5
v -0.5 6 3.5
v 0.5 6 3.5
v 1.5 6 3.5
v -1.5 6 -3.5
v -0.5 6 -3.5
v 0.5 6 -3.5
v 1.5 6 -3.5
v -0.5 7 3.5
v 0.5 7 3.5
v -0.5 7 -3.5
v 0.5 7 -3.5

# faces
f 3/4/1 2/4/1 1/4/1
f 4/4/1 2/4/1 3/4/1
f 9/3/1 7/3/1 6/3/1
f 10/3/1 7/3/1 9/3/1
f 11/3/1 9/3/1 6/3/1
f 12/3/1 7/3/1 10/3/1
f 13/2/1 6/2/1 5/2/1
f 14/3/1 12/3/1 11/3/1
f 14/2/1 6/2/1 13/2/1
f 14/3/1 11/3/1 6/3/1
f 15/2/1 8/2/1 7/2/1
f 15/3/1 12/3/1 14/3/1
f 15/3/1 7/3/1 12/3/1
f 16/2/1 8/2/1 15/2/1
f 19/4/1 18/4/1 17/4/1
f 20/4/1 18/4/1 19/4/1
f 23/1/1 22/1/1 21/1/1
f 24/1/1 22/1/1 23/1/1
f 27/4/1 26/4/1 25/4/1
f 28/4/1 26/4/1 27/4/1
f 31/4/1 30/4/1 29/4/1
f 32/4/1 30/4/1 31/4/1
f 37/3/1 34/3/1 33/3/1
f 38/3/1 34/3/1 37/3/1
f 41/3/1 36/3/1 35/3/1
f 42/3/1 36/3/1 41/3/1
f 44/3/1 40/3/1 39/3/1
f 45/3/1 40/3/1 44/3/1
f 48/4/1 44/4/1 43/4/1
f 49/4/1 44/4/1 48/4/1
f 50/4/1 47/4/1 46/4/1
f 51/4/1 47/4/1 50/4/1
f 56/4/1 53/4/1 52/4/1
f 57/4/1 53/4/1 56/4/1
f 58/4/1 55/4/1 54/4/1
f 59/4/1 55/4/1 58/4/1
f 60/4/2 61/4/2 64/4/2
f 64/4/2 61/4/2 65/4/2
f 62/4/2 63/4/2 66/4/2
f 66/4/2 63/4/2 67/4/2
f 68/3/2 69/3/2 72/3/2
f 72/3/2 69/3/2 73/3/2
f 70/3/2 71/3/2 76/3/2
f 76/3/2 71/3/2 77/3/2
f 74/3/2 75/3/2 79/3/2
f 79/3/2 75/3/2 80/3/2
f 78/4/2 79/4/2 83/4/2
f 83/4/2 79/4/2 84/4/2
f 81/4/2 82/4/2 85/4/2
f 85/4/2 82/4/2 86/4/2
f 87/4/2 88/4/2 89/4/2
f 89/4/2 88/4/2 90/4/2
f 91/1/2 92/1/2 93/1/2
f 93/1/2 92/1/2 94/1/2
f 95/4/2 96/4/2 97/4/2
f 97/4/2 96/4/2 98/4/2
f 100/3/2 101/3/2 103/3/2
f 103/3/2 101/3/2 104/3/2
f 100/3/2 103/3/2 105/3/2
f 104/3/2 101/3/2 106/3/2
f 99/2/2 100/2/2 107/2/2
f 105/3/2 106/3/2 108/3/2
f 107/2/2 100/2/2 108/2/2
f 100/3/2 105/3/2 108/3/2
f 101/2/2 102/2/2 109/2/2
f 108/3/2 106/3/2 109/3/2
f 106/3/2 101/3/2 109/3/2
f 109/2/2 102/2/2 110/2/2
f 111/4/2 112/4/2 113/4/2
f 113/4/2 112/4/2 114/4/2
f 115/4/2 116/4/2 117/4/2
f 117/4/2 116/4/2 118/4/2
f 121/4/3 120/4/3 119/4/3
f 123/4/3 121/4/3 119/4/3
f 123/4/3 122/4/3 121/4/3
f 124/4/3 122/4/3 123/4/3
f 125/4/3 122/4/3 124/4/3
f 127/4/3 126/4/3 125/4/3
f 127/4/3 125/4/3 124/4/3
f 128/4/3 126/4/3 127/4/3
f 129/4/3 126/4/3 128/4/3
f 132/4/3 130/4/3 129/4/3
f 132/4/3 129/4/3 128/4/3
f 133/4/3 130/4/3 132/4/3
f 134/4/3 130/4/3 133/4/3
f 136/4/3 132/4/3 131/4/3
f 136/4/3 133/4/3 132/4/3
f 137/4/3 133/4/3 136/4/3
f 138/4/3 133/4/3 137/4/3
f 139/4/3 136/4/3 135/4/3
f 139/4/3 137/4/3 136/4/3
f 140/4/3 137/4/3 139/4/3
f 141/4/3 139/4/3 135/4/3
f 142/4/3 139/4/3 141/4/3
f 145/2/3 144/2/3 143/2/3
f 146/2/3 144/2/3 145/2/3
f 148/3/3 146/3/3 145/3/3
f 148/3/3 147/3/3 146/3/3
f 149/3/3 147/3/3 148/3/3
f 150/3/3 147/3/3 149/3/3
f 151/3/3 147/3/3 150/3/3
f 154/3/3 150/3/3 149/3/3
f 155/3/3 150/3/3 154/3/3
f 156/3/3 152/3/3 151/3/3
f 157/3/3 152/3/3 156/3/3
f 158/3/3 155/3/3 154/3/3
f 158/3/3 154/3/3 153/3/3
f 158/3/3 156/3/3 155/3/3
f 159/3/3 156/3/3 158/3/3
f 160/3/3 156/3/3 159/3/3
f 161/2/3 159/2/3 158/2/3
f 162/2/3 159/2/3 161/2/3
f 167/1/3 164/1/3 163/1/3
f 168/1/3 164/1/3 167/1/3
f 169/1/3 166/1/3 165/1/3
f 170/1/3 166/1/3 169/1/3
f 173/3/3 172/3/3 171/3/3
f 174/3/3 172/3/3 173/3/3
f 177/3/3 176/3/3 175/3/3
f 178/3/3 176/3/3 177/3/3
f 179/3/4 180/3/4 181/3/4
f 181/3/4 180/3/4 182/3/4
f 183/3/4 184/3/4 185/3/4
f 185/3/4 184/3/4 186/3/4
f 187/1/4 188/1/4 189/1/4
f 189/1/4 188/1/4 190/1/4
f 191/2/4 192/2/4 193/2/4
f 193/2/4 192/2/4 194/2/4
f 193/3/4 194/3/4 196/3/4
f 194/3/4 195/3/4 196/3/4
f 196/3/4 195/3/4 197/3/4
f 197/3/4 195/3/4 198/3/4
f 193/3/4 196/3/4 200/3/4
f 198/3/4 199/3/4 201/3/4
f 197/3/4 198/3/4 201/3/4
f 201/3/4 199/3/4 202/3/4
f 202/3/4 199/3/4 203/3/4
f 193/3/4 200/3/4 204/3/4
f 200/3/4 201/3/4 204/3/4
f 201/3/4 202/3/4 204/3/4
f 204/3/4 202/3/4 205/3/4
f 205/3/4 202/3/4 206/3/4
f 204/2/4 205/2/4 207/2/4
f 207/2/4 205/2/4 208/2/4
f 209/4/4 210/4/4 211/4/4
f 209/4/4 211/4/4 213/4/4
f 211/4/4 212/4/4 213/4/4
f 213/4/4 212/4/4 214/4/4
f 214/4/4 212/4/4 215/4/4
f 215/4/4 216/4/4 217/4/4
f 214/4/4 215/4/4 217/4/4
f 217/4/4 216/4/4 218/4/4
f 218/4/4 216/4/4 219/4/4
f 219/4/4 220/4/4 222/4/4
f 218/4/4 219/4/4 222/4/4
f 222/4/4 220/4/4 223/4/4
f 223/4/4 220/4/4 224/4/4
f 221/4/4 222/4/4 226/4/4
f 222/4/4 223/4/4 226/4/4
f 226/4/4 223/4/4 227/4/4
f 227/4/4 223/4/4 228/4/4
f 225/4/4 226/4/4 229/4/4
f 226/4/4 227/4/4 229/4/4
f 229/4/4 227/4/4 230/4/4
f 225/4/4 229/4/4 231/4/4
f 231/4/4 229/4/4 232/4/4
f 239/2/5 234/2/5 233/2/5
f 240/3/5 235/3/5 234/3/5
f 240/2/5 234/2/5 239/2/5
f 241/3/5 235/3/5 240/3/5
f 242/3/5 237/3/5 236/3/5
f 243/2/5 238/2/5 237/2/5
f 243/3/5 237/3/5 242/3/5
f 244/2/5 238/2/5 243/2/5
f 245/1/5 242/1/5 241/1/5
f 245/3/5 241/3/5 240/3/5
f 245/3/5 240/3/5 239/3/5
f 246/3/5 244/3/5 243/3/5
f 246/1/5 242/1/5 245/1/5
f 246/3/5 243/3/5 242/3/5
f 247/3/5 245/3/5 239/3/5
f 247/3/5 246/3/5 245/3/5
f 248/3/5 246/3/5 247/3/5
f 249/3/5 244/3/5 246/3/5
f 249/3/5 246/3/5 248/3/5
f 250/3/5 244/3/5 249/3/5
f 251/2/5 248/2/5 247/2/5
f 252/3/5 249/3/5 248/3/5
f 252/2/5 248/2/5 251/2/5
f 253/2/5 250/2/5 249/2/5
f 253/3/5 249/3/5 252/3/5
f 254/2/5 250/2/5 253/2/5
f 257/3/5 256/3/5 255/3/5
f 258/3/5 256/3/5 257/3/5
f 263/3/5 260/3/5 259/3/5
f 264/3/5 260/3/5 263/3/5
f 265/3/5 262/3/5 261/3/5
f 266/3/5 262/3/5 265/3/5
f 271/4/5 268/4/5 267/4/5
f 272/4/5 268/4/5 271/4/5
f 273/4/5 270/4/5 269/4/5
f 274/4/5 270/4/5 273/4/5
f 275/4/5 271/4/5 267/4/5
f 276/4/5 270/4/5 274/4/5
f 277/4/5 275/4/5 267/4/5
f 280/4/5 270/4/5 276/4/5
f 281/4/5 277/4/5 267/4/5
f 283/3/5 279/3/5 278/3/5
f 284/3/5 279/3/5 283/3/5
f 286/4/5 270/4/5 280/4/5
f 287/4/5 282/4/5 281/4/5
f 287/4/5 281/4/5 267/4/5
f 288/4/5 282/4/5 287/4/5
f 289/4/5 286/4/5 285/4/5
f 290/4/5 270/4/5 286/4/5
f 290/4/5 286/4/5 289/4/5
f 295/4/5 292/4/5 291/4/5
f 296/4/5 292/4/5 295/4/5
f 297/4/5 294/4/5 293/4/5
f 298/4/5 294/4/5 297/4/5
f 299/3/5 297/3/5 296/3/5
f 300/3/5 297/3/5 299/3/5
f 305/4/5 302/4/5 301/4/5
f 306/4/5 302/4/5 305/4/5
f 307/4/5 304/4/5 303/4/5
f 308/4/5 304/4/5 307/4/5
f 311/4/5 310/4/5 309/4/5
f 312/4/5 310/4/5 311/4/5
f 315/4/5 314/4/5 313/4/5
f 316/4/5 314/4/5 315/4/5
f 317/3/6 318/3/6 321/3/6
f 321/3/6 318/3/6 322/3/6
f 319/3/6 320/3/6 323/3/6
f 323/3/6 320/3/6 324/3/6
f 325/3/6 326/3/6 327/3/6
f 327/3/6 326/3/6 328/3/6
f 329/3/6 330/3/6 331/3/6
f 331/3/6 330/3/6 332/3/6
f 333/4/6 334/4/6 337/4/6
f 337/4/6 334/4/6 338/4/6
f 335/4/6 336/4/6 339/4/6
f 339/4/6 336/4/6 340/4/6
f 341/4/6 342/4/6 345/4/6
f 345/4/6 342/4/6 346/4/6
f 343/4/6 344/4/6 347/4/6
f 347/4/6 344/4/6 348/4/6
f 349/4/6 350/4/6 353/4/6
f 353/4/6 350/4/6 354/4/6
f 351/4/6 352/4/6 355/4/6
f 355/4/6 352/4/6 356/4/6
f 357/4/6 358/4/6 359/4/6
f 359/4/6 358/4/6 360/4/6
