# MagicaVoxel @ Ephtracy

# group
g MedievalCity-10

# material
mtllib MedievalCity-10.mtl
usemtl palette

# normals
vn -1 0 0
vn 1 0 0
vn 0 0 1
vn 0 0 -1
vn 0 -1 0
vn 0 1 0

# texcoords
vt 0.0644531 0.5
vt 0.0722656 0.5
vt 0.0878906 0.5
vt 0.103516 0.5

# verts
v -7.5 3 5.5
v -7.5 3 -5.5
v -7.5 4 5.5
v -7.5 4 -5.5
v -6.5 0 4.5
v -6.5 0 3.5
v -6.5 0 0.5
v -6.5 0 -0.5
v -6.5 0 -3.5
v -6.5 0 -4.5
v -6.5 1 2.5
v -6.5 1 1.5
v -6.5 1 -1.5
v -6.5 1 -2.5
v -6.5 2 2.5
v -6.5 2 1.5
v -6.5 2 -1.5
v -6.5 2 -2.5
v -6.5 3 4.5
v -6.5 3 3.5
v -6.5 3 0.5
v -6.5 3 -0.5
v -6.5 3 -3.5
v -6.5 3 -4.5
v -6.5 4 5.5
v -6.5 4 -5.5
v -6.5 5 5.5
v -6.5 5 -5.5
v -5.5 1 2.5
v -5.5 1 1.5
v -5.5 1 -1.5
v -5.5 1 -2.5
v -5.5 2 2.5
v -5.5 2 1.5
v -5.5 2 -1.5
v -5.5 2 -2.5
v -5.5 5 5.5
v -5.5 5 -5.5
v -5.5 6 5.5
v -5.5 6 -5.5
v -4.5 6 5.5
v -4.5 6 -5.5
v -4.5 7 5.5
v -4.5 7 -5.5
v -3.5 0 4.5
v -3.5 0 3.5
v -3.5 1 -3.5
v -3.5 1 -4.5
v -3.5 2 4.5
v -3.5 2 3.5
v -3.5 3 4.5
v -3.5 3 3.5
v -3.5 3 -3.5
v -3.5 3 -4.5
v -3.5 4 5.5
v -3.5 4 4.5
v -3.5 4 3.5
v -3.5 4 -4.5
v -3.5 4 -5.5
v -3.5 5 5.5
v -3.5 5 4.5
v -3.5 5 -4.5
v -3.5 5 -5.5
v -2.5 3 5.5
v -2.5 3 4.5
v -2.5 3 -4.5
v -2.5 3 -5.5
v -2.5 4 5.5
v -2.5 4 4.5
v -2.5 4 -4.5
v -2.5 4 -5.5
v 0.5 1 0.5
v 0.5 1 -0.5
v 0.5 1 -3.5
v 0.5 1 -4.5
v 0.5 2 0.5
v 0.5 2 -0.5
v 0.5 2 -3.5
v 0.5 2 -4.5
v 4.5 1 0.5
v 4.5 1 -0.5
v 4.5 1 -3.5
v 4.5 1 -4.5
v 4.5 2 0.5
v 4.5 2 -0.5
v 4.5 2 -3.5
v 4.5 2 -4.5
v -5.5 3 5.5
v -5.5 3 4.5
v -5.5 3 -4.5
v -5.5 3 -5.5
v -5.5 4 5.5
v -5.5 4 4.5
v -5.5 4 -4.5
v -5.5 4 -5.5
v -4.5 0 4.5
v -4.5 0 3.5
v -4.5 1 -3.5
v -4.5 1 -4.5
v -4.5 2 4.5
v -4.5 2 3.5
v -4.5 3 4.5
v -4.5 3 3.5
v -4.5 3 -3.5
v -4.5 3 -4.5
v -4.5 4 5.5
v -4.5 4 4.5
v -4.5 4 3.5
v -4.5 4 -4.5
v -4.5 4 -5.5
v -4.5 5 5.5
v -4.5 5 4.5
v -4.5 5 -4.5
v -4.5 5 -5.5
v -3.5 6 5.5
v -3.5 6 -1.5
v -3.5 6 -2.5
v -3.5 6 -5.5
v -3.5 7 5.5
v -3.5 7 -1.5
v -3.5 7 -2.5
v -3.5 7 -5.5
v -2.5 1 2.5
v -2.5 1 1.5
v -2.5 2 2.5
v -2.5 2 1.5
v -2.5 5 5.5
v -2.5 5 -0.5
v -2.5 5 -3.5
v -2.5 5 -5.5
v -2.5 6 5.5
v -2.5 6 -0.5
v -2.5 6 -3.5
v -2.5 6 -5.5
v -1.5 0 4.5
v -1.5 0 3.5
v -1.5 0 0.5
v -1.5 1 2.5
v -1.5 1 1.5
v -1.5 2 2.5
v -1.5 2 1.5
v -1.5 3 4.5
v -1.5 3 3.5
v -1.5 3 0.5
v -1.5 4 5.5
v -1.5 4 0.5
v -1.5 4 -4.5
v -1.5 4 -5.5
v -1.5 5 5.5
v -1.5 5 0.5
v -1.5 5 -4.5
v -1.5 5 -5.5
v -0.5 1 0.5
v -0.5 1 -0.5
v -0.5 1 -3.5
v -0.5 1 -4.5
v -0.5 2 0.5
v -0.5 2 -0.5
v -0.5 2 -3.5
v -0.5 2 -4.5
v -0.5 3 5.5
v -0.5 3 1.5
v -0.5 4 5.5
v -0.5 4 1.5
v 3.5 1 0.5
v 3.5 1 -0.5
v 3.5 1 -3.5
v 3.5 1 -4.5
v 3.5 2 0.5
v 3.5 2 -0.5
v 3.5 2 -3.5
v 3.5 2 -4.5
v 5.5 1 -1.5
v 5.5 1 -2.5
v 5.5 3 -1.5
v 5.5 3 -2.5
v 6.5 0 0.5
v 6.5 0 -0.5
v 6.5 0 -3.5
v 6.5 0 -4.5
v 6.5 1 -1.5
v 6.5 1 -2.5
v 6.5 3 0.5
v 6.5 3 -0.5
v 6.5 3 -1.5
v 6.5 3 -2.5
v 6.5 3 -3.5
v 6.5 3 -4.5
v 6.5 4 -0.5
v 6.5 4 -1.5
v 6.5 4 -2.5
v 6.5 4 -3.5
v 6.5 5 -1.5
v 6.5 5 -2.5
v 7.5 3 1.5
v 7.5 3 -0.5
v 7.5 3 -3.5
v 7.5 3 -5.5
v 7.5 4 1.5
v 7.5 4 0.5
v 7.5 4 -0.5
v 7.5 4 -1.5
v 7.5 4 -2.5
v 7.5 4 -3.5
v 7.5 4 -4.5
v 7.5 4 -5.5
v 7.5 5 0.5
v 7.5 5 -0.5
v 7.5 5 -1.5
v 7.5 5 -2.5
v 7.5 5 -3.5
v 7.5 5 -4.5
v 7.5 6 -0.5
v 7.5 6 -1.5
v 7.5 6 -2.5
v 7.5 6 -3.5
v 7.5 7 -1.5
v 7.5 7 -2.5
v -7.5 3 5.5
v -7.5 4 5.5
v -6.5 4 5.5
v -6.5 5 5.5
v -5.5 3 5.5
v -5.5 4 5.5
v -5.5 5 5.5
v -5.5 6 5.5
v -4.5 4 5.5
v -4.5 5 5.5
v -4.5 6 5.5
v -4.5 7 5.5
v -3.5 4 5.5
v -3.5 5 5.5
v -3.5 6 5.5
v -3.5 7 5.5
v -2.5 3 5.5
v -2.5 4 5.5
v -2.5 5 5.5
v -2.5 6 5.5
v -1.5 4 5.5
v -1.5 5 5.5
v -0.5 3 5.5
v -0.5 4 5.5
v -6.5 0 4.5
v -6.5 3 4.5
v -5.5 0 4.5
v -5.5 3 4.5
v -5.5 4 4.5
v -4.5 0 4.5
v -4.5 2 4.5
v -4.5 3 4.5
v -4.5 4 4.5
v -4.5 5 4.5
v -3.5 0 4.5
v -3.5 2 4.5
v -3.5 3 4.5
v -3.5 4 4.5
v -3.5 5 4.5
v -2.5 0 4.5
v -2.5 3 4.5
v -2.5 4 4.5
v -1.5 0 4.5
v -1.5 3 4.5
v -4.5 0 3.5
v -4.5 2 3.5
v -4.5 3 3.5
v -4.5 4 3.5
v -3.5 0 3.5
v -3.5 2 3.5
v -3.5 3 3.5
v -3.5 4 3.5
v -6.5 1 1.5
v -6.5 2 1.5
v -5.5 1 1.5
v -5.5 2 1.5
v -2.5 1 1.5
v -2.5 2 1.5
v -1.5 1 1.5
v -1.5 2 1.5
v -0.5 3 1.5
v -0.5 4 1.5
v 7.5 3 1.5
v 7.5 4 1.5
v -1.5 0 0.5
v -1.5 3 0.5
v -1.5 4 0.5
v -1.5 5 0.5
v -0.5 1 0.5
v -0.5 2 0.5
v 0.5 1 0.5
v 0.5 2 0.5
v 1.5 0 0.5
v 1.5 3 0.5
v 2.5 0 0.5
v 2.5 3 0.5
v 3.5 1 0.5
v 3.5 2 0.5
v 4.5 1 0.5
v 4.5 2 0.5
v 5.5 0 0.5
v 5.5 3 0.5
v 6.5 0 0.5
v 6.5 3 0.5
v 7.5 4 0.5
v 7.5 5 0.5
v -2.5 5 -0.5
v -2.5 6 -0.5
v -0.5 1 -0.5
v -0.5 2 -0.5
v 0.5 1 -0.5
v 0.5 2 -0.5
v 3.5 1 -0.5
v 3.5 2 -0.5
v 4.5 1 -0.5
v 4.5 2 -0.5
v 7.5 5 -0.5
v 7.5 6 -0.5
v -3.5 6 -1.5
v -3.5 7 -1.5
v 7.5 6 -1.5
v 7.5 7 -1.5
v -6.5 1 -2.5
v -6.5 2 -2.5
v -5.5 1 -2.5
v -5.5 2 -2.5
v 5.5 1 -2.5
v 5.5 3 -2.5
v 6.5 1 -2.5
v 6.5 3 -2.5
v 6.5 4 -2.5
v 6.5 5 -2.5
v 7.5 4 -2.5
v 7.5 5 -2.5
v 6.5 3 -3.5
v 6.5 4 -3.5
v 7.5 3 -3.5
v 7.5 4 -3.5
v -6.5 1 2.5
v -6.5 2 2.5
v -5.5 1 2.5
v -5.5 2 2.5
v -2.5 1 2.5
v -2.5 2 2.5
v -1.5 1 2.5
v -1.5 2 2.5
v 6.5 3 -0.5
v 6.5 4 -0.5
v 7.5 3 -0.5
v 7.5 4 -0.5
v -6.5 1 -1.5
v -6.5 2 -1.5
v -5.5 1 -1.5
v -5.5 2 -1.5
v 5.5 1 -1.5
v 5.5 3 -1.5
v 6.5 1 -1.5
v 6.5 3 -1.5
v 6.5 4 -1.5
v 6.5 5 -1.5
v 7.5 4 -1.5
v 7.5 5 -1.5
v -3.5 6 -2.5
v -3.5 7 -2.5
v 7.5 6 -2.5
v 7.5 7 -2.5
v -4.5 1 -3.5
v -4.5 3 -3.5
v -3.5 1 -3.5
v -3.5 3 -3.5
v -2.5 5 -3.5
v -2.5 6 -3.5
v -0.5 1 -3.5
v -0.5 2 -3.5
v 0.5 1 -3.5
v 0.5 2 -3.5
v 3.5 1 -3.5
v 3.5 2 -3.5
v 4.5 1 -3.5
v 4.5 2 -3.5
v 7.5 5 -3.5
v 7.5 6 -3.5
v -6.5 0 -4.5
v -6.5 3 -4.5
v -5.5 0 -4.5
v -5.5 3 -4.5
v -5.5 4 -4.5
v -4.5 1 -4.5
v -4.5 3 -4.5
v -4.5 4 -4.5
v -4.5 5 -4.5
v -3.5 1 -4.5
v -3.5 3 -4.5
v -3.5 4 -4.5
v -3.5 5 -4.5
v -2.5 0 -4.5
v -2.5 3 -4.5
v -2.5 4 -4.5
v -1.5 0 -4.5
v -1.5 3 -4.5
v -1.5 4 -4.5
v -1.5 5 -4.5
v -0.5 1 -4.5
v -0.5 2 -4.5
v 0.5 1 -4.5
v 0.5 2 -4.5
v 1.5 0 -4.5
v 1.5 3 -4.5
v 2.5 0 -4.5
v 2.5 3 -4.5
v 3.5 1 -4.5
v 3.5 2 -4.5
v 4.5 1 -4.5
v 4.5 2 -4.5
v 5.5 0 -4.5
v 5.5 3 -4.5
v 6.5 0 -4.5
v 6.5 3 -4.5
v 7.5 4 -4.5
v 7.5 5 -4.5
v -7.5 3 -5.5
v -7.5 4 -5.5
v -6.5 4 -5.5
v -6.5 5 -5.5
v -5.5 3 -5.5
v -5.5 4 -5.5
v -5.5 5 -5.5
v -5.5 6 -5.5
v -4.5 4 -5.5
v -4.5 5 -5.5
v -4.5 6 -5.5
v -4.5 7 -5.5
v -3.5 4 -5.5
v -3.5 5 -5.5
v -3.5 6 -5.5
v -3.5 7 -5.5
v -2.5 3 -5.5
v -2.5 4 -5.5
v -2.5 5 -5.5
v -2.5 6 -5.5
v -1.5 4 -5.5
v -1.5 5 -5.5
v 7.5 3 -5.5
v 7.5 4 -5.5
v -6.5 0 4.5
v -5.5 0 4.5
v -4.5 0 4.5
v -3.5 0 4.5
v -2.5 0 4.5
v -1.5 0 4.5
v -6.5 0 3.5
v -5.5 0 3.5
v -4.5 0 3.5
v -3.5 0 3.5
v -2.5 0 3.5
v -1.5 0 3.5
v -4.5 0 2.5
v -3.5 0 2.5
v -6.5 0 0.5
v -5.5 0 0.5
v -2.5 0 0.5
v -1.5 0 0.5
v 1.5 0 0.5
v 2.5 0 0.5
v 5.5 0 0.5
v 6.5 0 0.5
v -6.5 0 -0.5
v -5.5 0 -0.5
v -2.5 0 -0.5
v -1.5 0 -0.5
v 1.5 0 -0.5
v 2.5 0 -0.5
v 5.5 0 -0.5
v 6.5 0 -0.5
v -6.5 0 -3.5
v -5.5 0 -3.5
v -2.5 0 -3.5
v -1.5 0 -3.5
v 1.5 0 -3.5
v 2.5 0 -3.5
v 5.5 0 -3.5
v 6.5 0 -3.5
v -6.5 0 -4.5
v -5.5 0 -4.5
v -2.5 0 -4.5
v -1.5 0 -4.5
v 1.5 0 -4.5
v 2.5 0 -4.5
v 5.5 0 -4.5
v 6.5 0 -4.5
v -4.5 2 4.5
v -3.5 2 4.5
v -4.5 2 3.5
v -3.5 2 3.5
v -6.5 2 2.5
v -5.5 2 2.5
v -2.5 2 2.5
v -1.5 2 2.5
v -6.5 2 1.5
v -5.5 2 1.5
v -2.5 2 1.5
v -1.5 2 1.5
v -0.5 2 0.5
v 0.5 2 0.5
v 3.5 2 0.5
v 4.5 2 0.5
v -0.5 2 -0.5
v 0.5 2 -0.5
v 3.5 2 -0.5
v 4.5 2 -0.5
v -6.5 2 -1.5
v -5.5 2 -1.5
v -6.5 2 -2.5
v -5.5 2 -2.5
v -0.5 2 -3.5
v 0.5 2 -3.5
v 3.5 2 -3.5
v 4.5 2 -3.5
v -0.5 2 -4.5
v 0.5 2 -4.5
v 3.5 2 -4.5
v 4.5 2 -4.5
v -7.5 3 5.5
v -5.5 3 5.5
v -2.5 3 5.5
v -0.5 3 5.5
v -6.5 3 4.5
v -5.5 3 4.5
v -2.5 3 4.5
v -1.5 3 4.5
v -6.5 3 3.5
v -1.5 3 3.5
v -0.5 3 1.5
v 7.5 3 1.5
v -6.5 3 0.5
v -1.5 3 0.5
v 1.5 3 0.5
v 2.5 3 0.5
v 5.5 3 0.5
v 6.5 3 0.5
v -6.5 3 -0.5
v 6.5 3 -0.5
v 7.5 3 -0.5
v 5.5 3 -1.5
v 6.5 3 -1.5
v 5.5 3 -2.5
v 6.5 3 -2.5
v -6.5 3 -3.5
v -4.5 3 -3.5
v -3.5 3 -3.5
v 6.5 3 -3.5
v 7.5 3 -3.5
v -6.5 3 -4.5
v -5.5 3 -4.5
v -4.5 3 -4.5
v -3.5 3 -4.5
v -2.5 3 -4.5
v -1.5 3 -4.5
v 1.5 3 -4.5
v 2.5 3 -4.5
v 5.5 3 -4.5
v 6.5 3 -4.5
v -7.5 3 -5.5
v -5.5 3 -5.5
v -2.5 3 -5.5
v 7.5 3 -5.5
v -5.5 4 5.5
v -4.5 4 5.5
v -3.5 4 5.5
v -2.5 4 5.5
v -5.5 4 4.5
v -4.5 4 4.5
v -3.5 4 4.5
v -2.5 4 4.5
v -4.5 4 3.5
v -3.5 4 3.5
v 6.5 4 -0.5
v 7.5 4 -0.5
v 6.5 4 -1.5
v 7.5 4 -1.5
v 6.5 4 -2.5
v 7.5 4 -2.5
v 6.5 4 -3.5
v 7.5 4 -3.5
v -5.5 4 -4.5
v -4.5 4 -4.5
v -3.5 4 -4.5
v -2.5 4 -4.5
v -5.5 4 -5.5
v -4.5 4 -5.5
v -3.5 4 -5.5
v -2.5 4 -5.5
v -4.5 5 5.5
v -3.5 5 5.5
v -4.5 5 4.5
v -3.5 5 4.5
v 6.5 5 -1.5
v 7.5 5 -1.5
v 6.5 5 -2.5
v 7.5 5 -2.5
v -4.5 5 -4.5
v -3.5 5 -4.5
v -4.5 5 -5.5
v -3.5 5 -5.5
v -6.5 1 2.5
v -5.5 1 2.5
v -2.5 1 2.5
v -1.5 1 2.5
v -6.5 1 1.5
v -5.5 1 1.5
v -2.5 1 1.5
v -1.5 1 1.5
v -0.5 1 0.5
v 0.5 1 0.5
v 3.5 1 0.5
v 4.5 1 0.5
v -0.5 1 -0.5
v 0.5 1 -0.5
v 3.5 1 -0.5
v 4.5 1 -0.5
v -6.5 1 -1.5
v -5.5 1 -1.5
v 5.5 1 -1.5
v 6.5 1 -1.5
v -6.5 1 -2.5
v -5.5 1 -2.5
v 5.5 1 -2.5
v 6.5 1 -2.5
v -4.5 1 -3.5
v -3.5 1 -3.5
v -0.5 1 -3.5
v 0.5 1 -3.5
v 3.5 1 -3.5
v 4.5 1 -3.5
v -4.5 1 -4.5
v -3.5 1 -4.5
v -0.5 1 -4.5
v 0.5 1 -4.5
v 3.5 1 -4.5
v 4.5 1 -4.5
v -4.5 3 4.5
v -3.5 3 4.5
v -4.5 3 3.5
v -3.5 3 3.5
v -7.5 4 5.5
v -6.5 4 5.5
v -1.5 4 5.5
v -0.5 4 5.5
v -0.5 4 1.5
v 7.5 4 1.5
v -1.5 4 0.5
v 7.5 4 0.5
v -1.5 4 -4.5
v 7.5 4 -4.5
v -7.5 4 -5.5
v -6.5 4 -5.5
v -1.5 4 -5.5
v 7.5 4 -5.5
v -6.5 5 5.5
v -5.5 5 5.5
v -2.5 5 5.5
v -1.5 5 5.5
v -1.5 5 0.5
v 7.5 5 0.5
v -2.5 5 -0.5
v 7.5 5 -0.5
v -2.5 5 -3.5
v 7.5 5 -3.5
v -1.5 5 -4.5
v 7.5 5 -4.5
v -6.5 5 -5.5
v -5.5 5 -5.5
v -2.5 5 -5.5
v -1.5 5 -5.5
v -5.5 6 5.5
v -4.5 6 5.5
v -3.5 6 5.5
v -2.5 6 5.5
v -2.5 6 -0.5
v 7.5 6 -0.5
v -3.5 6 -1.5
v 7.5 6 -1.5
v -3.5 6 -2.5
v 7.5 6 -2.5
v -2.5 6 -3.5
v 7.5 6 -3.5
v -5.5 6 -5.5
v -4.5 6 -5.5
v -3.5 6 -5.5
v -2.5 6 -5.5
v -4.5 7 5.5
v -3.5 7 5.5
v -3.5 7 -1.5
v 7.5 7 -1.5
v -3.5 7 -2.5
v 7.5 7 -2.5
v -4.5 7 -5.5
v -3.5 7 -5.5

# faces
f 3/4/1 2/4/1 1/4/1
f 4/4/1 2/4/1 3/4/1
f 11/3/1 7/3/1 6/3/1
f 12/3/1 7/3/1 11/3/1
f 13/3/1 9/3/1 8/3/1
f 14/3/1 9/3/1 13/3/1
f 15/3/1 11/3/1 6/3/1
f 16/3/1 7/3/1 12/3/1
f 17/3/1 13/3/1 8/3/1
f 18/3/1 9/3/1 14/3/1
f 19/2/1 6/2/1 5/2/1
f 20/3/1 15/3/1 6/3/1
f 20/2/1 6/2/1 19/2/1
f 20/3/1 16/3/1 15/3/1
f 21/2/1 8/2/1 7/2/1
f 21/3/1 16/3/1 20/3/1
f 21/3/1 7/3/1 16/3/1
f 22/3/1 18/3/1 17/3/1
f 22/2/1 8/2/1 21/2/1
f 22/3/1 17/3/1 8/3/1
f 23/2/1 10/2/1 9/2/1
f 23/3/1 18/3/1 22/3/1
f 23/3/1 9/3/1 18/3/1
f 24/2/1 10/2/1 23/2/1
f 27/4/1 26/4/1 25/4/1
f 28/4/1 26/4/1 27/4/1
f 33/1/1 30/1/1 29/1/1
f 34/1/1 30/1/1 33/1/1
f 35/1/1 32/1/1 31/1/1
f 36/1/1 32/1/1 35/1/1
f 39/4/1 38/4/1 37/4/1
f 40/4/1 38/4/1 39/4/1
f 43/4/1 42/4/1 41/4/1
f 44/4/1 42/4/1 43/4/1
f 49/3/1 46/3/1 45/3/1
f 50/3/1 46/3/1 49/3/1
f 53/3/1 48/3/1 47/3/1
f 54/3/1 48/3/1 53/3/1
f 56/3/1 52/3/1 51/3/1
f 57/3/1 52/3/1 56/3/1
f 60/4/1 56/4/1 55/4/1
f 61/4/1 56/4/1 60/4/1
f 62/4/1 59/4/1 58/4/1
f 63/4/1 59/4/1 62/4/1
f 68/4/1 65/4/1 64/4/1
f 69/4/1 65/4/1 68/4/1
f 70/4/1 67/4/1 66/4/1
f 71/4/1 67/4/1 70/4/1
f 76/3/1 73/3/1 72/3/1
f 77/3/1 73/3/1 76/3/1
f 78/3/1 75/3/1 74/3/1
f 79/3/1 75/3/1 78/3/1
f 84/3/1 81/3/1 80/3/1
f 85/3/1 81/3/1 84/3/1
f 86/3/1 83/3/1 82/3/1
f 87/3/1 83/3/1 86/3/1
f 88/4/2 89/4/2 92/4/2
f 92/4/2 89/4/2 93/4/2
f 90/4/2 91/4/2 94/4/2
f 94/4/2 91/4/2 95/4/2
f 96/3/2 97/3/2 100/3/2
f 100/3/2 97/3/2 101/3/2
f 98/3/2 99/3/2 104/3/2
f 104/3/2 99/3/2 105/3/2
f 102/3/2 103/3/2 107/3/2
f 107/3/2 103/3/2 108/3/2
f 106/4/2 107/4/2 111/4/2
f 111/4/2 107/4/2 112/4/2
f 109/4/2 110/4/2 113/4/2
f 113/4/2 110/4/2 114/4/2
f 115/4/2 116/4/2 119/4/2
f 119/4/2 116/4/2 120/4/2
f 117/4/2 118/4/2 121/4/2
f 121/4/2 118/4/2 122/4/2
f 123/1/2 124/1/2 125/1/2
f 125/1/2 124/1/2 126/1/2
f 127/4/2 128/4/2 131/4/2
f 131/4/2 128/4/2 132/4/2
f 129/4/2 130/4/2 133/4/2
f 133/4/2 130/4/2 134/4/2
f 136/3/2 137/3/2 138/3/2
f 138/3/2 137/3/2 139/3/2
f 136/3/2 138/3/2 140/3/2
f 139/3/2 137/3/2 141/3/2
f 135/2/2 136/2/2 142/2/2
f 140/3/2 141/3/2 143/3/2
f 142/2/2 136/2/2 143/2/2
f 136/3/2 140/3/2 143/3/2
f 141/3/2 137/3/2 144/3/2
f 143/3/2 141/3/2 144/3/2
f 145/4/2 146/4/2 149/4/2
f 149/4/2 146/4/2 150/4/2
f 147/4/2 148/4/2 151/4/2
f 151/4/2 148/4/2 152/4/2
f 153/3/2 154/3/2 157/3/2
f 157/3/2 154/3/2 158/3/2
f 155/3/2 156/3/2 159/3/2
f 159/3/2 156/3/2 160/3/2
f 161/4/2 162/4/2 163/4/2
f 163/4/2 162/4/2 164/4/2
f 165/3/2 166/3/2 169/3/2
f 169/3/2 166/3/2 170/3/2
f 167/3/2 168/3/2 171/3/2
f 171/3/2 168/3/2 172/3/2
f 173/1/2 174/1/2 175/1/2
f 175/1/2 174/1/2 176/1/2
f 178/3/2 179/3/2 181/3/2
f 181/3/2 179/3/2 182/3/2
f 177/2/2 178/2/2 183/2/2
f 178/3/2 181/3/2 184/3/2
f 183/2/2 178/2/2 184/2/2
f 184/3/2 181/3/2 185/3/2
f 182/3/2 179/3/2 186/3/2
f 179/2/2 180/2/2 187/2/2
f 186/3/2 179/3/2 187/3/2
f 187/2/2 180/2/2 188/2/2
f 184/3/2 185/3/2 189/3/2
f 185/3/2 186/3/2 189/3/2
f 186/3/2 187/3/2 189/3/2
f 189/3/2 187/3/2 190/3/2
f 190/3/2 187/3/2 191/3/2
f 191/3/2 187/3/2 192/3/2
f 190/3/2 191/3/2 193/3/2
f 193/3/2 191/3/2 194/3/2
f 195/4/2 196/4/2 199/4/2
f 199/4/2 196/4/2 200/4/2
f 200/4/2 196/4/2 201/4/2
f 197/4/2 198/4/2 204/4/2
f 204/4/2 198/4/2 205/4/2
f 205/4/2 198/4/2 206/4/2
f 201/4/2 202/4/2 207/4/2
f 200/4/2 201/4/2 207/4/2
f 207/4/2 202/4/2 208/4/2
f 208/4/2 202/4/2 209/4/2
f 204/4/2 205/4/2 210/4/2
f 203/4/2 204/4/2 210/4/2
f 210/4/2 205/4/2 211/4/2
f 211/4/2 205/4/2 212/4/2
f 208/4/2 209/4/2 213/4/2
f 210/4/2 211/4/2 213/4/2
f 209/4/2 210/4/2 213/4/2
f 213/4/2 211/4/2 214/4/2
f 214/4/2 211/4/2 215/4/2
f 215/4/2 211/4/2 216/4/2
f 214/4/2 215/4/2 217/4/2
f 217/4/2 215/4/2 218/4/2
f 221/4/3 220/4/3 219/4/3
f 223/4/3 221/4/3 219/4/3
f 223/4/3 222/4/3 221/4/3
f 224/4/3 222/4/3 223/4/3
f 225/4/3 222/4/3 224/4/3
f 227/4/3 226/4/3 225/4/3
f 227/4/3 225/4/3 224/4/3
f 228/4/3 226/4/3 227/4/3
f 229/4/3 226/4/3 228/4/3
f 232/4/3 230/4/3 229/4/3
f 232/4/3 229/4/3 228/4/3
f 233/4/3 230/4/3 232/4/3
f 234/4/3 230/4/3 233/4/3
f 236/4/3 232/4/3 231/4/3
f 236/4/3 233/4/3 232/4/3
f 237/4/3 233/4/3 236/4/3
f 238/4/3 233/4/3 237/4/3
f 239/4/3 236/4/3 235/4/3
f 239/4/3 237/4/3 236/4/3
f 240/4/3 237/4/3 239/4/3
f 241/4/3 239/4/3 235/4/3
f 242/4/3 239/4/3 241/4/3
f 245/2/3 244/2/3 243/2/3
f 246/2/3 244/2/3 245/2/3
f 248/3/3 246/3/3 245/3/3
f 248/3/3 247/3/3 246/3/3
f 249/3/3 247/3/3 248/3/3
f 250/3/3 247/3/3 249/3/3
f 251/3/3 247/3/3 250/3/3
f 254/3/3 250/3/3 249/3/3
f 255/3/3 250/3/3 254/3/3
f 256/3/3 252/3/3 251/3/3
f 257/3/3 252/3/3 256/3/3
f 258/3/3 255/3/3 254/3/3
f 258/3/3 254/3/3 253/3/3
f 258/3/3 256/3/3 255/3/3
f 259/3/3 256/3/3 258/3/3
f 260/3/3 256/3/3 259/3/3
f 261/2/3 259/2/3 258/2/3
f 262/2/3 259/2/3 261/2/3
f 267/1/3 264/1/3 263/1/3
f 268/1/3 264/1/3 267/1/3
f 269/1/3 266/1/3 265/1/3
f 270/1/3 266/1/3 269/1/3
f 273/3/3 272/3/3 271/3/3
f 274/3/3 272/3/3 273/3/3
f 277/3/3 276/3/3 275/3/3
f 278/3/3 276/3/3 277/3/3
f 281/4/3 280/4/3 279/4/3
f 282/4/3 280/4/3 281/4/3
f 287/3/3 284/3/3 283/3/3
f 288/3/3 284/3/3 287/3/3
f 289/3/3 287/3/3 283/3/3
f 290/3/3 284/3/3 288/3/3
f 291/3/3 289/3/3 283/3/3
f 291/3/3 290/3/3 289/3/3
f 292/3/3 284/3/3 290/3/3
f 292/3/3 290/3/3 291/3/3
f 293/2/3 292/2/3 291/2/3
f 294/2/3 292/2/3 293/2/3
f 295/3/3 294/3/3 293/3/3
f 296/3/3 294/3/3 295/3/3
f 297/3/3 295/3/3 293/3/3
f 298/3/3 294/3/3 296/3/3
f 299/3/3 297/3/3 293/3/3
f 299/3/3 298/3/3 297/3/3
f 300/3/3 294/3/3 298/3/3
f 300/3/3 298/3/3 299/3/3
f 301/2/3 300/2/3 299/2/3
f 302/2/3 300/2/3 301/2/3
f 303/4/3 286/4/3 285/4/3
f 304/4/3 286/4/3 303/4/3
f 309/1/3 308/1/3 307/1/3
f 310/1/3 308/1/3 309/1/3
f 313/1/3 312/1/3 311/1/3
f 314/1/3 312/1/3 313/1/3
f 315/4/3 306/4/3 305/4/3
f 316/4/3 306/4/3 315/4/3
f 319/4/3 318/4/3 317/4/3
f 320/4/3 318/4/3 319/4/3
f 323/3/3 322/3/3 321/3/3
f 324/3/3 322/3/3 323/3/3
f 327/3/3 326/3/3 325/3/3
f 328/3/3 326/3/3 327/3/3
f 331/4/3 330/4/3 329/4/3
f 332/4/3 330/4/3 331/4/3
f 335/4/3 334/4/3 333/4/3
f 336/4/3 334/4/3 335/4/3
f 337/3/4 338/3/4 339/3/4
f 339/3/4 338/3/4 340/3/4
f 341/3/4 342/3/4 343/3/4
f 343/3/4 342/3/4 344/3/4
f 345/4/4 346/4/4 347/4/4
f 347/4/4 346/4/4 348/4/4
f 349/3/4 350/3/4 351/3/4
f 351/3/4 350/3/4 352/3/4
f 353/3/4 354/3/4 355/3/4
f 355/3/4 354/3/4 356/3/4
f 357/4/4 358/4/4 359/4/4
f 359/4/4 358/4/4 360/4/4
f 361/4/4 362/4/4 363/4/4
f 363/4/4 362/4/4 364/4/4
f 365/1/4 366/1/4 367/1/4
f 367/1/4 366/1/4 368/1/4
f 371/1/4 372/1/4 373/1/4
f 373/1/4 372/1/4 374/1/4
f 375/1/4 376/1/4 377/1/4
f 377/1/4 376/1/4 378/1/4
f 369/4/4 370/4/4 379/4/4
f 379/4/4 370/4/4 380/4/4
f 381/2/4 382/2/4 383/2/4
f 383/2/4 382/2/4 384/2/4
f 383/3/4 384/3/4 386/3/4
f 384/3/4 385/3/4 386/3/4
f 386/3/4 385/3/4 387/3/4
f 387/3/4 385/3/4 388/3/4
f 383/3/4 386/3/4 390/3/4
f 388/3/4 389/3/4 391/3/4
f 387/3/4 388/3/4 391/3/4
f 391/3/4 389/3/4 392/3/4
f 392/3/4 389/3/4 393/3/4
f 383/3/4 390/3/4 394/3/4
f 390/3/4 391/3/4 394/3/4
f 391/3/4 392/3/4 394/3/4
f 394/3/4 392/3/4 395/3/4
f 395/3/4 392/3/4 396/3/4
f 394/2/4 395/2/4 397/2/4
f 397/2/4 395/2/4 398/2/4
f 397/3/4 398/3/4 401/3/4
f 401/3/4 398/3/4 402/3/4
f 397/3/4 401/3/4 403/3/4
f 402/3/4 398/3/4 404/3/4
f 397/3/4 403/3/4 405/3/4
f 403/3/4 404/3/4 405/3/4
f 404/3/4 398/3/4 406/3/4
f 405/3/4 404/3/4 406/3/4
f 405/2/4 406/2/4 407/2/4
f 407/2/4 406/2/4 408/2/4
f 407/3/4 408/3/4 409/3/4
f 409/3/4 408/3/4 410/3/4
f 407/3/4 409/3/4 411/3/4
f 410/3/4 408/3/4 412/3/4
f 407/3/4 411/3/4 413/3/4
f 411/3/4 412/3/4 413/3/4
f 412/3/4 408/3/4 414/3/4
f 413/3/4 412/3/4 414/3/4
f 413/2/4 414/2/4 415/2/4
f 415/2/4 414/2/4 416/2/4
f 399/4/4 400/4/4 417/4/4
f 417/4/4 400/4/4 418/4/4
f 419/4/4 420/4/4 421/4/4
f 419/4/4 421/4/4 423/4/4
f 421/4/4 422/4/4 423/4/4
f 423/4/4 422/4/4 424/4/4
f 424/4/4 422/4/4 425/4/4
f 425/4/4 426/4/4 427/4/4
f 424/4/4 425/4/4 427/4/4
f 427/4/4 426/4/4 428/4/4
f 428/4/4 426/4/4 429/4/4
f 429/4/4 430/4/4 432/4/4
f 428/4/4 429/4/4 432/4/4
f 432/4/4 430/4/4 433/4/4
f 433/4/4 430/4/4 434/4/4
f 431/4/4 432/4/4 436/4/4
f 432/4/4 433/4/4 436/4/4
f 436/4/4 433/4/4 437/4/4
f 437/4/4 433/4/4 438/4/4
f 435/4/4 436/4/4 439/4/4
f 436/4/4 437/4/4 439/4/4
f 439/4/4 437/4/4 440/4/4
f 435/4/4 439/4/4 441/4/4
f 441/4/4 439/4/4 442/4/4
f 449/2/5 444/2/5 443/2/5
f 450/3/5 445/3/5 444/3/5
f 450/2/5 444/2/5 449/2/5
f 451/3/5 445/3/5 450/3/5
f 452/3/5 447/3/5 446/3/5
f 453/2/5 448/2/5 447/2/5
f 453/3/5 447/3/5 452/3/5
f 454/2/5 448/2/5 453/2/5
f 455/1/5 452/1/5 451/1/5
f 455/3/5 451/3/5 450/3/5
f 455/3/5 450/3/5 449/3/5
f 456/3/5 454/3/5 453/3/5
f 456/1/5 452/1/5 455/1/5
f 456/3/5 453/3/5 452/3/5
f 457/3/5 455/3/5 449/3/5
f 457/3/5 456/3/5 455/3/5
f 458/3/5 456/3/5 457/3/5
f 459/3/5 454/3/5 456/3/5
f 459/3/5 456/3/5 458/3/5
f 460/3/5 454/3/5 459/3/5
f 465/2/5 458/2/5 457/2/5
f 466/3/5 459/3/5 458/3/5
f 466/2/5 458/2/5 465/2/5
f 467/2/5 460/2/5 459/2/5
f 467/3/5 459/3/5 466/3/5
f 468/3/5 461/3/5 460/3/5
f 468/2/5 460/2/5 467/2/5
f 469/2/5 462/2/5 461/2/5
f 469/3/5 461/3/5 468/3/5
f 470/3/5 463/3/5 462/3/5
f 470/2/5 462/2/5 469/2/5
f 471/2/5 464/2/5 463/2/5
f 471/3/5 463/3/5 470/3/5
f 472/2/5 464/2/5 471/2/5
f 473/3/5 466/3/5 465/3/5
f 473/3/5 470/3/5 469/3/5
f 473/3/5 472/3/5 471/3/5
f 473/3/5 471/3/5 470/3/5
f 473/3/5 469/3/5 468/3/5
f 473/3/5 468/3/5 467/3/5
f 473/3/5 467/3/5 466/3/5
f 474/3/5 472/3/5 473/3/5
f 475/3/5 472/3/5 474/3/5
f 476/3/5 472/3/5 475/3/5
f 477/3/5 472/3/5 476/3/5
f 478/3/5 472/3/5 477/3/5
f 479/3/5 472/3/5 478/3/5
f 480/3/5 472/3/5 479/3/5
f 481/2/5 474/2/5 473/2/5
f 482/3/5 475/3/5 474/3/5
f 482/2/5 474/2/5 481/2/5
f 483/2/5 476/2/5 475/2/5
f 483/3/5 475/3/5 482/3/5
f 484/3/5 477/3/5 476/3/5
f 484/2/5 476/2/5 483/2/5
f 485/2/5 478/2/5 477/2/5
f 485/3/5 477/3/5 484/3/5
f 486/3/5 479/3/5 478/3/5
f 486/2/5 478/2/5 485/2/5
f 487/2/5 480/2/5 479/2/5
f 487/3/5 479/3/5 486/3/5
f 488/2/5 480/2/5 487/2/5
f 491/3/5 490/3/5 489/3/5
f 492/3/5 490/3/5 491/3/5
f 497/3/5 494/3/5 493/3/5
f 498/3/5 494/3/5 497/3/5
f 499/3/5 496/3/5 495/3/5
f 500/3/5 496/3/5 499/3/5
f 505/3/5 502/3/5 501/3/5
f 506/3/5 502/3/5 505/3/5
f 507/3/5 504/3/5 503/3/5
f 508/3/5 504/3/5 507/3/5
f 511/3/5 510/3/5 509/3/5
f 512/3/5 510/3/5 511/3/5
f 517/3/5 514/3/5 513/3/5
f 518/3/5 514/3/5 517/3/5
f 519/3/5 516/3/5 515/3/5
f 520/3/5 516/3/5 519/3/5
f 525/4/5 522/4/5 521/4/5
f 526/4/5 522/4/5 525/4/5
f 527/4/5 524/4/5 523/4/5
f 528/4/5 524/4/5 527/4/5
f 529/4/5 525/4/5 521/4/5
f 530/4/5 524/4/5 528/4/5
f 531/4/5 524/4/5 530/4/5
f 533/4/5 529/4/5 521/4/5
f 534/4/5 532/4/5 531/4/5
f 534/4/5 531/4/5 530/4/5
f 535/4/5 532/4/5 534/4/5
f 536/4/5 532/4/5 535/4/5
f 537/4/5 532/4/5 536/4/5
f 538/4/5 532/4/5 537/4/5
f 539/4/5 533/4/5 521/4/5
f 540/4/5 532/4/5 538/4/5
f 541/4/5 532/4/5 540/4/5
f 544/3/5 543/3/5 542/3/5
f 545/3/5 543/3/5 544/3/5
f 546/4/5 539/4/5 521/4/5
f 551/4/5 546/4/5 521/4/5
f 553/3/5 548/3/5 547/3/5
f 554/3/5 548/3/5 553/3/5
f 560/4/5 550/4/5 549/4/5
f 561/4/5 552/4/5 551/4/5
f 561/4/5 551/4/5 521/4/5
f 562/4/5 552/4/5 561/4/5
f 563/4/5 560/4/5 559/4/5
f 563/4/5 559/4/5 558/4/5
f 563/4/5 556/4/5 555/4/5
f 563/4/5 558/4/5 557/4/5
f 563/4/5 557/4/5 556/4/5
f 564/4/5 550/4/5 560/4/5
f 564/4/5 560/4/5 563/4/5
f 569/4/5 566/4/5 565/4/5
f 570/4/5 566/4/5 569/4/5
f 571/4/5 568/4/5 567/4/5
f 572/4/5 568/4/5 571/4/5
f 573/3/5 571/3/5 570/3/5
f 574/3/5 571/3/5 573/3/5
f 577/4/5 576/4/5 575/4/5
f 578/4/5 576/4/5 577/4/5
f 581/4/5 580/4/5 579/4/5
f 582/4/5 580/4/5 581/4/5
f 587/4/5 584/4/5 583/4/5
f 588/4/5 584/4/5 587/4/5
f 589/4/5 586/4/5 585/4/5
f 590/4/5 586/4/5 589/4/5
f 593/4/5 592/4/5 591/4/5
f 594/4/5 592/4/5 593/4/5
f 597/4/5 596/4/5 595/4/5
f 598/4/5 596/4/5 597/4/5
f 601/4/5 600/4/5 599/4/5
f 602/4/5 600/4/5 601/4/5
f 603/3/6 604/3/6 607/3/6
f 607/3/6 604/3/6 608/3/6
f 605/3/6 606/3/6 609/3/6
f 609/3/6 606/3/6 610/3/6
f 611/3/6 612/3/6 615/3/6
f 615/3/6 612/3/6 616/3/6
f 613/3/6 614/3/6 617/3/6
f 617/3/6 614/3/6 618/3/6
f 619/3/6 620/3/6 623/3/6
f 623/3/6 620/3/6 624/3/6
f 621/3/6 622/3/6 625/3/6
f 625/3/6 622/3/6 626/3/6
f 627/3/6 628/3/6 633/3/6
f 633/3/6 628/3/6 634/3/6
f 629/3/6 630/3/6 635/3/6
f 635/3/6 630/3/6 636/3/6
f 631/3/6 632/3/6 637/3/6
f 637/3/6 632/3/6 638/3/6
f 639/3/6 640/3/6 641/3/6
f 641/3/6 640/3/6 642/3/6
f 645/4/6 646/4/6 647/4/6
f 645/4/6 647/4/6 649/4/6
f 647/4/6 648/4/6 649/4/6
f 649/4/6 648/4/6 650/4/6
f 643/4/6 644/4/6 653/4/6
f 653/4/6 644/4/6 654/4/6
f 651/4/6 652/4/6 655/4/6
f 655/4/6 652/4/6 656/4/6
f 659/4/6 660/4/6 661/4/6
f 659/4/6 661/4/6 663/4/6
f 661/4/6 662/4/6 663/4/6
f 663/4/6 662/4/6 664/4/6
f 665/4/6 666/4/6 667/4/6
f 667/4/6 666/4/6 668/4/6
f 657/4/6 658/4/6 669/4/6
f 669/4/6 658/4/6 670/4/6
f 665/4/6 667/4/6 671/4/6
f 671/4/6 667/4/6 672/4/6
f 675/4/6 676/4/6 677/4/6
f 675/4/6 677/4/6 679/4/6
f 677/4/6 678/4/6 679/4/6
f 679/4/6 678/4/6 680/4/6
f 681/4/6 682/4/6 683/4/6
f 683/4/6 682/4/6 684/4/6
f 673/4/6 674/4/6 685/4/6
f 685/4/6 674/4/6 686/4/6
f 681/4/6 683/4/6 687/4/6
f 687/4/6 683/4/6 688/4/6
f 689/4/6 690/4/6 691/4/6
f 689/4/6 691/4/6 693/4/6
f 691/4/6 692/4/6 693/4/6
f 693/4/6 692/4/6 694/4/6
f 689/4/6 693/4/6 695/4/6
f 695/4/6 693/4/6 696/4/6
