# MagicaVoxel @ Ephtracy

# group
g MedievalCity-6

# material
mtllib MedievalCity-6.mtl
usemtl palette

# normals
vn -1 0 0
vn 1 0 0
vn 0 0 1
vn 0 0 -1
vn 0 -1 0
vn 0 1 0

# texcoords
vt 0.0644531 0.5
vt 0.0722656 0.5
vt 0.0878906 0.5
vt 0.103516 0.5

# verts
v -3.5 3 5.5
v -3.5 3 -5.5
v -3.5 4 5.5
v -3.5 4 -5.5
v -2.5 0 4.5
v -2.5 0 3.5
v -2.5 0 0.5
v -2.5 0 -0.5
v -2.5 0 -3.5
v -2.5 0 -4.5
v -2.5 1 2.5
v -2.5 1 1.5
v -2.5 1 -1.5
v -2.5 1 -2.5
v -2.5 2 2.5
v -2.5 2 1.5
v -2.5 2 -1.5
v -2.5 2 -2.5
v -2.5 3 4.5
v -2.5 3 3.5
v -2.5 3 0.5
v -2.5 3 -0.5
v -2.5 3 -3.5
v -2.5 3 -4.5
v -2.5 4 5.5
v -2.5 4 -5.5
v -2.5 5 5.5
v -2.5 5 -5.5
v -1.5 1 2.5
v -1.5 1 1.5
v -1.5 1 -1.5
v -1.5 1 -2.5
v -1.5 2 2.5
v -1.5 2 1.5
v -1.5 2 -1.5
v -1.5 2 -2.5
v -1.5 5 5.5
v -1.5 5 -5.5
v -1.5 6 5.5
v -1.5 6 -5.5
v -0.5 6 5.5
v -0.5 6 -5.5
v -0.5 7 5.5
v -0.5 7 -5.5
v 0.5 0 4.5
v 0.5 0 3.5
v 0.5 1 -3.5
v 0.5 1 -4.5
v 0.5 2 4.5
v 0.5 2 3.5
v 0.5 3 4.5
v 0.5 3 3.5
v 0.5 3 -3.5
v 0.5 3 -4.5
v 0.5 4 5.5
v 0.5 4 4.5
v 0.5 4 3.5
v 0.5 4 -4.5
v 0.5 4 -5.5
v 0.5 5 5.5
v 0.5 5 4.5
v 0.5 5 -4.5
v 0.5 5 -5.5
v 1.5 3 5.5
v 1.5 3 4.5
v 1.5 3 -4.5
v 1.5 3 -5.5
v 1.5 4 5.5
v 1.5 4 4.5
v 1.5 4 -4.5
v 1.5 4 -5.5
v -1.5 3 5.5
v -1.5 3 4.5
v -1.5 3 -4.5
v -1.5 3 -5.5
v -1.5 4 5.5
v -1.5 4 4.5
v -1.5 4 -4.5
v -1.5 4 -5.5
v -0.5 0 4.5
v -0.5 0 3.5
v -0.5 1 -3.5
v -0.5 1 -4.5
v -0.5 2 4.5
v -0.5 2 3.5
v -0.5 3 4.5
v -0.5 3 3.5
v -0.5 3 -3.5
v -0.5 3 -4.5
v -0.5 4 5.5
v -0.5 4 4.5
v -0.5 4 3.5
v -0.5 4 -4.5
v -0.5 4 -5.5
v -0.5 5 5.5
v -0.5 5 4.5
v -0.5 5 -4.5
v -0.5 5 -5.5
v 0.5 6 5.5
v 0.5 6 -5.5
v 0.5 7 5.5
v 0.5 7 -5.5
v 1.5 1 2.5
v 1.5 1 1.5
v 1.5 1 -1.5
v 1.5 1 -2.5
v 1.5 2 2.5
v 1.5 2 1.5
v 1.5 2 -1.5
v 1.5 2 -2.5
v 1.5 5 5.5
v 1.5 5 -5.5
v 1.5 6 5.5
v 1.5 6 -5.5
v 2.5 0 4.5
v 2.5 0 3.5
v 2.5 0 0.5
v 2.5 0 -0.5
v 2.5 0 -3.5
v 2.5 0 -4.5
v 2.5 1 2.5
v 2.5 1 1.5
v 2.5 1 -1.5
v 2.5 1 -2.5
v 2.5 2 2.5
v 2.5 2 1.5
v 2.5 2 -1.5
v 2.5 2 -2.5
v 2.5 3 4.5
v 2.5 3 3.5
v 2.5 3 0.5
v 2.5 3 -0.5
v 2.5 3 -3.5
v 2.5 3 -4.5
v 2.5 4 5.5
v 2.5 4 -5.5
v 2.5 5 5.5
v 2.5 5 -5.5
v 3.5 3 5.5
v 3.5 3 -5.5
v 3.5 4 5.5
v 3.5 4 -5.5
v -3.5 3 5.5
v -3.5 4 5.5
v -2.5 4 5.5
v -2.5 5 5.5
v -1.5 3 5.5
v -1.5 4 5.5
v -1.5 5 5.5
v -1.5 6 5.5
v -0.5 4 5.5
v -0.5 5 5.5
v -0.5 6 5.5
v -0.5 7 5.5
v 0.5 4 5.5
v 0.5 5 5.5
v 0.5 6 5.5
v 0.5 7 5.5
v 1.5 3 5.5
v 1.5 4 5.5
v 1.5 5 5.5
v 1.5 6 5.5
v 2.5 4 5.5
v 2.5 5 5.5
v 3.5 3 5.5
v 3.5 4 5.5
v -2.5 0 4.5
v -2.5 3 4.5
v -1.5 0 4.5
v -1.5 3 4.5
v -1.5 4 4.5
v -0.5 0 4.5
v -0.5 2 4.5
v -0.5 3 4.5
v -0.5 4 4.5
v -0.5 5 4.5
v 0.5 0 4.5
v 0.5 2 4.5
v 0.5 3 4.5
v 0.5 4 4.5
v 0.5 5 4.5
v 1.5 0 4.5
v 1.5 3 4.5
v 1.5 4 4.5
v 2.5 0 4.5
v 2.5 3 4.5
v -0.5 0 3.5
v -0.5 2 3.5
v -0.5 3 3.5
v -0.5 4 3.5
v 0.5 0 3.5
v 0.5 2 3.5
v 0.5 3 3.5
v 0.5 4 3.5
v -2.5 1 1.5
v -2.5 2 1.5
v -1.5 1 1.5
v -1.5 2 1.5
v 1.5 1 1.5
v 1.5 2 1.5
v 2.5 1 1.5
v 2.5 2 1.5
v -2.5 1 -2.5
v -2.5 2 -2.5
v -1.5 1 -2.5
v -1.5 2 -2.5
v 1.5 1 -2.5
v 1.5 2 -2.5
v 2.5 1 -2.5
v 2.5 2 -2.5
v -2.5 1 2.5
v -2.5 2 2.5
v -1.5 1 2.5
v -1.5 2 2.5
v 1.5 1 2.5
v 1.5 2 2.5
v 2.5 1 2.5
v 2.5 2 2.5
v -2.5 1 -1.5
v -2.5 2 -1.5
v -1.5 1 -1.5
v -1.5 2 -1.5
v 1.5 1 -1.5
v 1.5 2 -1.5
v 2.5 1 -1.5
v 2.5 2 -1.5
v -0.5 1 -3.5
v -0.5 3 -3.5
v 0.5 1 -3.5
v 0.5 3 -3.5
v -2.5 0 -4.5
v -2.5 3 -4.5
v -1.5 0 -4.5
v -1.5 3 -4.5
v -1.5 4 -4.5
v -0.5 1 -4.5
v -0.5 3 -4.5
v -0.5 4 -4.5
v -0.5 5 -4.5
v 0.5 1 -4.5
v 0.5 3 -4.5
v 0.5 4 -4.5
v 0.5 5 -4.5
v 1.5 0 -4.5
v 1.5 3 -4.5
v 1.5 4 -4.5
v 2.5 0 -4.5
v 2.5 3 -4.5
v -3.5 3 -5.5
v -3.5 4 -5.5
v -2.5 4 -5.5
v -2.5 5 -5.5
v -1.5 3 -5.5
v -1.5 4 -5.5
v -1.5 5 -5.5
v -1.5 6 -5.5
v -0.5 4 -5.5
v -0.5 5 -5.5
v -0.5 6 -5.5
v -0.5 7 -5.5
v 0.5 4 -5.5
v 0.5 5 -5.5
v 0.5 6 -5.5
v 0.5 7 -5.5
v 1.5 3 -5.5
v 1.5 4 -5.5
v 1.5 5 -5.5
v 1.5 6 -5.5
v 2.5 4 -5.5
v 2.5 5 -5.5
v 3.5 3 -5.5
v 3.5 4 -5.5
v -2.5 0 4.5
v -1.5 0 4.5
v -0.5 0 4.5
v 0.5 0 4.5
v 1.5 0 4.5
v 2.5 0 4.5
v -2.5 0 3.5
v -1.5 0 3.5
v -0.5 0 3.5
v 0.5 0 3.5
v 1.5 0 3.5
v 2.5 0 3.5
v -0.5 0 2.5
v 0.5 0 2.5
v -2.5 0 0.5
v -1.5 0 0.5
v 1.5 0 0.5
v 2.5 0 0.5
v -2.5 0 -0.5
v -1.5 0 -0.5
v 1.5 0 -0.5
v 2.5 0 -0.5
v -2.5 0 -3.5
v -1.5 0 -3.5
v 1.5 0 -3.5
v 2.5 0 -3.5
v -2.5 0 -4.5
v -1.5 0 -4.5
v 1.5 0 -4.5
v 2.5 0 -4.5
v -0.5 2 4.5
v 0.5 2 4.5
v -0.5 2 3.5
v 0.5 2 3.5
v -2.5 2 2.5
v -1.5 2 2.5
v 1.5 2 2.5
v 2.5 2 2.5
v -2.5 2 1.5
v -1.5 2 1.5
v 1.5 2 1.5
v 2.5 2 1.5
v -2.5 2 -1.5
v -1.5 2 -1.5
v 1.5 2 -1.5
v 2.5 2 -1.5
v -2.5 2 -2.5
v -1.5 2 -2.5
v 1.5 2 -2.5
v 2.5 2 -2.5
v -3.5 3 5.5
v -1.5 3 5.5
v 1.5 3 5.5
v 3.5 3 5.5
v -2.5 3 4.5
v -1.5 3 4.5
v 1.5 3 4.5
v 2.5 3 4.5
v -2.5 3 3.5
v 2.5 3 3.5
v -2.5 3 0.5
v 2.5 3 0.5
v -2.5 3 -0.5
v 2.5 3 -0.5
v -2.5 3 -3.5
v -0.5 3 -3.5
v 0.5 3 -3.5
v 2.5 3 -3.5
v -2.5 3 -4.5
v -1.5 3 -4.5
v -0.5 3 -4.5
v 0.5 3 -4.5
v 1.5 3 -4.5
v 2.5 3 -4.5
v -3.5 3 -5.5
v -1.5 3 -5.5
v 1.5 3 -5.5
v 3.5 3 -5.5
v -1.5 4 5.5
v -0.5 4 5.5
v 0.5 4 5.5
v 1.5 4 5.5
v -1.5 4 4.5
v -0.5 4 4.5
v 0.5 4 4.5
v 1.5 4 4.5
v -0.5 4 3.5
v 0.5 4 3.5
v -1.5 4 -4.5
v -0.5 4 -4.5
v 0.5 4 -4.5
v 1.5 4 -4.5
v -1.5 4 -5.5
v -0.5 4 -5.5
v 0.5 4 -5.5
v 1.5 4 -5.5
v -0.5 5 5.5
v 0.5 5 5.5
v -0.5 5 4.5
v 0.5 5 4.5
v -0.5 5 -4.5
v 0.5 5 -4.5
v -0.5 5 -5.5
v 0.5 5 -5.5
v -2.5 1 2.5
v -1.5 1 2.5
v 1.5 1 2.5
v 2.5 1 2.5
v -2.5 1 1.5
v -1.5 1 1.5
v 1.5 1 1.5
v 2.5 1 1.5
v -2.5 1 -1.5
v -1.5 1 -1.5
v 1.5 1 -1.5
v 2.5 1 -1.5
v -2.5 1 -2.5
v -1.5 1 -2.5
v 1.5 1 -2.5
v 2.5 1 -2.5
v -0.5 1 -3.5
v 0.5 1 -3.5
v -0.5 1 -4.5
v 0.5 1 -4.5
v -0.5 3 4.5
v 0.5 3 4.5
v -0.5 3 3.5
v 0.5 3 3.5
v -3.5 4 5.5
v -2.5 4 5.5
v 2.5 4 5.5
v 3.5 4 5.5
v -3.5 4 -5.5
v -2.5 4 -5.5
v 2.5 4 -5.5
v 3.5 4 -5.5
v -2.5 5 5.5
v -1.5 5 5.5
v 1.5 5 5.5
v 2.5 5 5.5
v -2.5 5 -5.5
v -1.5 5 -5.5
v 1.5 5 -5.5
v 2.5 5 -5.5
v -1.5 6 5.5
v -0.5 6 5.5
v 0.5 6 5.5
v 1.5 6 5.5
v -1.5 6 -5.5
v -0.5 6 -5.5
v 0.5 6 -5.5
v 1.5 6 -5.5
v -0.5 7 5.5
v 0.5 7 5.5
v -0.5 7 -5.5
v 0.5 7 -5.5

# faces
f 3/4/1 2/4/1 1/4/1
f 4/4/1 2/4/1 3/4/1
f 11/3/1 7/3/1 6/3/1
f 12/3/1 7/3/1 11/3/1
f 13/3/1 9/3/1 8/3/1
f 14/3/1 9/3/1 13/3/1
f 15/3/1 11/3/1 6/3/1
f 16/3/1 7/3/1 12/3/1
f 17/3/1 13/3/1 8/3/1
f 18/3/1 9/3/1 14/3/1
f 19/2/1 6/2/1 5/2/1
f 20/3/1 15/3/1 6/3/1
f 20/2/1 6/2/1 19/2/1
f 20/3/1 16/3/1 15/3/1
f 21/2/1 8/2/1 7/2/1
f 21/3/1 16/3/1 20/3/1
f 21/3/1 7/3/1 16/3/1
f 22/3/1 18/3/1 17/3/1
f 22/2/1 8/2/1 21/2/1
f 22/3/1 17/3/1 8/3/1
f 23/2/1 10/2/1 9/2/1
f 23/3/1 18/3/1 22/3/1
f 23/3/1 9/3/1 18/3/1
f 24/2/1 10/2/1 23/2/1
f 27/4/1 26/4/1 25/4/1
f 28/4/1 26/4/1 27/4/1
f 33/1/1 30/1/1 29/1/1
f 34/1/1 30/1/1 33/1/1
f 35/1/1 32/1/1 31/1/1
f 36/1/1 32/1/1 35/1/1
f 39/4/1 38/4/1 37/4/1
f 40/4/1 38/4/1 39/4/1
f 43/4/1 42/4/1 41/4/1
f 44/4/1 42/4/1 43/4/1
f 49/3/1 46/3/1 45/3/1
f 50/3/1 46/3/1 49/3/1
f 53/3/1 48/3/1 47/3/1
f 54/3/1 48/3/1 53/3/1
f 56/3/1 52/3/1 51/3/1
f 57/3/1 52/3/1 56/3/1
f 60/4/1 56/4/1 55/4/1
f 61/4/1 56/4/1 60/4/1
f 62/4/1 59/4/1 58/4/1
f 63/4/1 59/4/1 62/4/1
f 68/4/1 65/4/1 64/4/1
f 69/4/1 65/4/1 68/4/1
f 70/4/1 67/4/1 66/4/1
f 71/4/1 67/4/1 70/4/1
f 72/4/2 73/4/2 76/4/2
f 76/4/2 73/4/2 77/4/2
f 74/4/2 75/4/2 78/4/2
f 78/4/2 75/4/2 79/4/2
f 80/3/2 81/3/2 84/3/2
f 84/3/2 81/3/2 85/3/2
f 82/3/2 83/3/2 88/3/2
f 88/3/2 83/3/2 89/3/2
f 86/3/2 87/3/2 91/3/2
f 91/3/2 87/3/2 92/3/2
f 90/4/2 91/4/2 95/4/2
f 95/4/2 91/4/2 96/4/2
f 93/4/2 94/4/2 97/4/2
f 97/4/2 94/4/2 98/4/2
f 99/4/2 100/4/2 101/4/2
f 101/4/2 100/4/2 102/4/2
f 103/1/2 104/1/2 107/1/2
f 107/1/2 104/1/2 108/1/2
f 105/1/2 106/1/2 109/1/2
f 109/1/2 106/1/2 110/1/2
f 111/4/2 112/4/2 113/4/2
f 113/4/2 112/4/2 114/4/2
f 116/3/2 117/3/2 121/3/2
f 121/3/2 117/3/2 122/3/2
f 118/3/2 119/3/2 123/3/2
f 123/3/2 119/3/2 124/3/2
f 116/3/2 121/3/2 125/3/2
f 122/3/2 117/3/2 126/3/2
f 118/3/2 123/3/2 127/3/2
f 124/3/2 119/3/2 128/3/2
f 115/2/2 116/2/2 129/2/2
f 116/3/2 125/3/2 130/3/2
f 129/2/2 116/2/2 130/2/2
f 125/3/2 126/3/2 130/3/2
f 117/2/2 118/2/2 131/2/2
f 130/3/2 126/3/2 131/3/2
f 126/3/2 117/3/2 131/3/2
f 127/3/2 128/3/2 132/3/2
f 131/2/2 118/2/2 132/2/2
f 118/3/2 127/3/2 132/3/2
f 119/2/2 120/2/2 133/2/2
f 132/3/2 128/3/2 133/3/2
f 128/3/2 119/3/2 133/3/2
f 133/2/2 120/2/2 134/2/2
f 135/4/2 136/4/2 137/4/2
f 137/4/2 136/4/2 138/4/2
f 139/4/2 140/4/2 141/4/2
f 141/4/2 140/4/2 142/4/2
f 145/4/3 144/4/3 143/4/3
f 147/4/3 145/4/3 143/4/3
f 147/4/3 146/4/3 145/4/3
f 148/4/3 146/4/3 147/4/3
f 149/4/3 146/4/3 148/4/3
f 151/4/3 150/4/3 149/4/3
f 151/4/3 149/4/3 148/4/3
f 152/4/3 150/4/3 151/4/3
f 153/4/3 150/4/3 152/4/3
f 156/4/3 154/4/3 153/4/3
f 156/4/3 153/4/3 152/4/3
f 157/4/3 154/4/3 156/4/3
f 158/4/3 154/4/3 157/4/3
f 160/4/3 156/4/3 155/4/3
f 160/4/3 157/4/3 156/4/3
f 161/4/3 157/4/3 160/4/3
f 162/4/3 157/4/3 161/4/3
f 163/4/3 160/4/3 159/4/3
f 163/4/3 161/4/3 160/4/3
f 164/4/3 161/4/3 163/4/3
f 165/4/3 163/4/3 159/4/3
f 166/4/3 163/4/3 165/4/3
f 169/2/3 168/2/3 167/2/3
f 170/2/3 168/2/3 169/2/3
f 172/3/3 170/3/3 169/3/3
f 172/3/3 171/3/3 170/3/3
f 173/3/3 171/3/3 172/3/3
f 174/3/3 171/3/3 173/3/3
f 175/3/3 171/3/3 174/3/3
f 178/3/3 174/3/3 173/3/3
f 179/3/3 174/3/3 178/3/3
f 180/3/3 176/3/3 175/3/3
f 181/3/3 176/3/3 180/3/3
f 182/3/3 179/3/3 178/3/3
f 182/3/3 178/3/3 177/3/3
f 182/3/3 180/3/3 179/3/3
f 183/3/3 180/3/3 182/3/3
f 184/3/3 180/3/3 183/3/3
f 185/2/3 183/2/3 182/2/3
f 186/2/3 183/2/3 185/2/3
f 191/1/3 188/1/3 187/1/3
f 192/1/3 188/1/3 191/1/3
f 193/1/3 190/1/3 189/1/3
f 194/1/3 190/1/3 193/1/3
f 197/3/3 196/3/3 195/3/3
f 198/3/3 196/3/3 197/3/3
f 201/3/3 200/3/3 199/3/3
f 202/3/3 200/3/3 201/3/3
f 205/3/3 204/3/3 203/3/3
f 206/3/3 204/3/3 205/3/3
f 209/3/3 208/3/3 207/3/3
f 210/3/3 208/3/3 209/3/3
f 211/3/4 212/3/4 213/3/4
f 213/3/4 212/3/4 214/3/4
f 215/3/4 216/3/4 217/3/4
f 217/3/4 216/3/4 218/3/4
f 219/3/4 220/3/4 221/3/4
f 221/3/4 220/3/4 222/3/4
f 223/3/4 224/3/4 225/3/4
f 225/3/4 224/3/4 226/3/4
f 227/1/4 228/1/4 229/1/4
f 229/1/4 228/1/4 230/1/4
f 231/2/4 232/2/4 233/2/4
f 233/2/4 232/2/4 234/2/4
f 233/3/4 234/3/4 236/3/4
f 234/3/4 235/3/4 236/3/4
f 236/3/4 235/3/4 237/3/4
f 237/3/4 235/3/4 238/3/4
f 233/3/4 236/3/4 240/3/4
f 238/3/4 239/3/4 241/3/4
f 237/3/4 238/3/4 241/3/4
f 241/3/4 239/3/4 242/3/4
f 242/3/4 239/3/4 243/3/4
f 233/3/4 240/3/4 244/3/4
f 240/3/4 241/3/4 244/3/4
f 241/3/4 242/3/4 244/3/4
f 244/3/4 242/3/4 245/3/4
f 245/3/4 242/3/4 246/3/4
f 244/2/4 245/2/4 247/2/4
f 247/2/4 245/2/4 248/2/4
f 249/4/4 250/4/4 251/4/4
f 249/4/4 251/4/4 253/4/4
f 251/4/4 252/4/4 253/4/4
f 253/4/4 252/4/4 254/4/4
f 254/4/4 252/4/4 255/4/4
f 255/4/4 256/4/4 257/4/4
f 254/4/4 255/4/4 257/4/4
f 257/4/4 256/4/4 258/4/4
f 258/4/4 256/4/4 259/4/4
f 259/4/4 260/4/4 262/4/4
f 258/4/4 259/4/4 262/4/4
f 262/4/4 260/4/4 263/4/4
f 263/4/4 260/4/4 264/4/4
f 261/4/4 262/4/4 266/4/4
f 262/4/4 263/4/4 266/4/4
f 266/4/4 263/4/4 267/4/4
f 267/4/4 263/4/4 268/4/4
f 265/4/4 266/4/4 269/4/4
f 266/4/4 267/4/4 269/4/4
f 269/4/4 267/4/4 270/4/4
f 265/4/4 269/4/4 271/4/4
f 271/4/4 269/4/4 272/4/4
f 279/2/5 274/2/5 273/2/5
f 280/3/5 275/3/5 274/3/5
f 280/2/5 274/2/5 279/2/5
f 281/3/5 275/3/5 280/3/5
f 282/3/5 277/3/5 276/3/5
f 283/2/5 278/2/5 277/2/5
f 283/3/5 277/3/5 282/3/5
f 284/2/5 278/2/5 283/2/5
f 285/1/5 282/1/5 281/1/5
f 285/3/5 281/3/5 280/3/5
f 285/3/5 280/3/5 279/3/5
f 286/3/5 284/3/5 283/3/5
f 286/1/5 282/1/5 285/1/5
f 286/3/5 283/3/5 282/3/5
f 287/3/5 285/3/5 279/3/5
f 287/3/5 286/3/5 285/3/5
f 288/3/5 286/3/5 287/3/5
f 289/3/5 284/3/5 286/3/5
f 289/3/5 286/3/5 288/3/5
f 290/3/5 284/3/5 289/3/5
f 291/2/5 288/2/5 287/2/5
f 292/3/5 289/3/5 288/3/5
f 292/2/5 288/2/5 291/2/5
f 293/2/5 290/2/5 289/2/5
f 293/3/5 289/3/5 292/3/5
f 294/2/5 290/2/5 293/2/5
f 295/3/5 292/3/5 291/3/5
f 295/3/5 293/3/5 292/3/5
f 295/3/5 294/3/5 293/3/5
f 296/3/5 294/3/5 295/3/5
f 297/3/5 294/3/5 296/3/5
f 298/3/5 294/3/5 297/3/5
f 299/2/5 296/2/5 295/2/5
f 300/3/5 297/3/5 296/3/5
f 300/2/5 296/2/5 299/2/5
f 301/2/5 298/2/5 297/2/5
f 301/3/5 297/3/5 300/3/5
f 302/2/5 298/2/5 301/2/5
f 305/3/5 304/3/5 303/3/5
f 306/3/5 304/3/5 305/3/5
f 311/3/5 308/3/5 307/3/5
f 312/3/5 308/3/5 311/3/5
f 313/3/5 310/3/5 309/3/5
f 314/3/5 310/3/5 313/3/5
f 319/3/5 316/3/5 315/3/5
f 320/3/5 316/3/5 319/3/5
f 321/3/5 318/3/5 317/3/5
f 322/3/5 318/3/5 321/3/5
f 327/4/5 324/4/5 323/4/5
f 328/4/5 324/4/5 327/4/5
f 329/4/5 326/4/5 325/4/5
f 330/4/5 326/4/5 329/4/5
f 331/4/5 327/4/5 323/4/5
f 332/4/5 326/4/5 330/4/5
f 333/4/5 331/4/5 323/4/5
f 334/4/5 326/4/5 332/4/5
f 335/4/5 333/4/5 323/4/5
f 336/4/5 326/4/5 334/4/5
f 337/4/5 335/4/5 323/4/5
f 340/4/5 326/4/5 336/4/5
f 341/4/5 337/4/5 323/4/5
f 343/3/5 339/3/5 338/3/5
f 344/3/5 339/3/5 343/3/5
f 346/4/5 326/4/5 340/4/5
f 347/4/5 342/4/5 341/4/5
f 347/4/5 341/4/5 323/4/5
f 348/4/5 342/4/5 347/4/5
f 349/4/5 346/4/5 345/4/5
f 350/4/5 326/4/5 346/4/5
f 350/4/5 346/4/5 349/4/5
f 355/4/5 352/4/5 351/4/5
f 356/4/5 352/4/5 355/4/5
f 357/4/5 354/4/5 353/4/5
f 358/4/5 354/4/5 357/4/5
f 359/3/5 357/3/5 356/3/5
f 360/3/5 357/3/5 359/3/5
f 365/4/5 362/4/5 361/4/5
f 366/4/5 362/4/5 365/4/5
f 367/4/5 364/4/5 363/4/5
f 368/4/5 364/4/5 367/4/5
f 371/4/5 370/4/5 369/4/5
f 372/4/5 370/4/5 371/4/5
f 375/4/5 374/4/5 373/4/5
f 376/4/5 374/4/5 375/4/5
f 377/3/6 378/3/6 381/3/6
f 381/3/6 378/3/6 382/3/6
f 379/3/6 380/3/6 383/3/6
f 383/3/6 380/3/6 384/3/6
f 385/3/6 386/3/6 389/3/6
f 389/3/6 386/3/6 390/3/6
f 387/3/6 388/3/6 391/3/6
f 391/3/6 388/3/6 392/3/6
f 393/3/6 394/3/6 395/3/6
f 395/3/6 394/3/6 396/3/6
f 397/3/6 398/3/6 399/3/6
f 399/3/6 398/3/6 400/3/6
f 401/4/6 402/4/6 405/4/6
f 405/4/6 402/4/6 406/4/6
f 403/4/6 404/4/6 407/4/6
f 407/4/6 404/4/6 408/4/6
f 409/4/6 410/4/6 413/4/6
f 413/4/6 410/4/6 414/4/6
f 411/4/6 412/4/6 415/4/6
f 415/4/6 412/4/6 416/4/6
f 417/4/6 418/4/6 421/4/6
f 421/4/6 418/4/6 422/4/6
f 419/4/6 420/4/6 423/4/6
f 423/4/6 420/4/6 424/4/6
f 425/4/6 426/4/6 427/4/6
f 427/4/6 426/4/6 428/4/6
